<?xml version="1.0" standalone="no"?>
<!DOCTYPE svg PUBLIC "-//W3C//DTD SVG 20010904//EN"
 "http://www.w3.org/TR/2001/REC-SVG-20010904/DTD/svg10.dtd">
<svg version="1.0" xmlns="http://www.w3.org/2000/svg"
 width="572.000000pt" height="201.000000pt" viewBox="0 0 572.000000 201.000000"
 preserveAspectRatio="xMidYMid meet">

<g transform="translate(0.000000,201.000000) scale(0.100000,-0.100000)"
fill="#000000" stroke="none">
<path d="M422 1628 c-33 -90 -98 -262 -143 -383 -121 -326 -126 -335 -213
-335 -25 0 -48 -4 -51 -10 -8 -13 -27 -11 173 -16 102 -3 172 -1 172 4 0 5
-29 13 -64 17 -36 3 -69 12 -74 18 -7 8 9 68 47 182 l56 170 137 3 c108 2 139
0 150 -12 20 -20 124 -333 114 -343 -4 -4 -35 -10 -69 -13 -34 -3 -62 -9 -62
-15 0 -6 70 -11 185 -12 165 -2 183 -1 166 12 -11 8 -34 17 -52 21 -18 3 -39
13 -47 22 -8 10 -34 71 -57 137 -54 154 -223 617 -245 673 -13 32 -23 42 -39
42 -20 0 -30 -20 -84 -162z m61 8 c76 -199 118 -318 112 -324 -8 -8 -245 -6
-253 2 -11 11 113 336 128 336 4 0 10 -6 13 -14z"/>
<path d="M1535 1764 c-11 -2 -45 -9 -75 -15 -117 -23 -246 -119 -302 -225
-100 -187 -66 -414 82 -547 96 -86 193 -117 368 -117 158 0 318 41 337 87 4
10 10 74 13 143 3 75 9 128 16 132 6 4 32 8 58 8 40 0 69 13 57 25 -8 7 -360
17 -393 11 -53 -10 -36 -23 40 -31 96 -10 104 -21 104 -145 0 -54 -5 -110 -11
-123 -20 -45 -84 -71 -184 -75 -123 -5 -184 18 -270 102 -145 142 -182 340
-97 519 66 140 172 213 323 224 149 10 245 -37 311 -153 16 -30 34 -54 38 -54
10 0 1 161 -9 173 -14 14 -121 47 -188 57 -67 9 -179 11 -218 4z"/>
<path d="M5086 1478 c-161 -434 -205 -544 -232 -569 -17 -16 -40 -24 -79 -27
-30 -2 -55 -8 -55 -13 0 -5 79 -9 176 -9 98 0 173 4 170 9 -3 5 -33 11 -67 13
-34 2 -64 10 -69 17 -4 8 15 82 49 182 l56 169 146 0 147 0 51 -146 c28 -80
52 -160 54 -178 l2 -31 -67 -9 c-38 -4 -68 -12 -68 -16 0 -12 351 -23 363 -11
12 12 8 14 -63 34 -43 12 -46 16 -72 82 -16 39 -59 158 -97 265 -38 107 -97
270 -131 363 -88 237 -78 242 -214 -125z m162 -13 c34 -91 62 -169 62 -175 0
-6 -50 -10 -130 -10 -106 0 -130 3 -130 14 0 8 23 74 51 148 28 73 55 145 61
161 5 15 13 27 17 27 4 0 35 -74 69 -165z"/>
<path d="M2736 1743 c-80 -18 -186 -76 -245 -134 l-49 -48 -23 25 c-29 31 -35
24 -14 -16 16 -31 16 -33 -20 -106 -88 -178 -79 -393 23 -550 80 -123 217
-217 350 -239 l42 -7 0 71 c0 61 -2 71 -17 71 -10 0 -43 12 -73 26 -153 71
-242 209 -242 373 0 85 10 124 30 118 10 -3 78 -22 152 -42 74 -20 153 -44
175 -54 22 -10 77 -54 123 -99 l82 -80 0 56 c0 72 15 127 41 151 11 10 58 34
104 53 83 35 84 35 89 14 37 -146 -2 -296 -102 -399 -38 -40 -125 -97 -146
-97 -3 0 2 16 10 35 15 37 19 131 6 139 -5 3 -20 -5 -34 -17 -25 -21 -26 -25
-18 -72 5 -27 9 -92 9 -144 l1 -93 33 6 c17 3 64 22 103 41 86 42 195 151 236
237 80 163 77 362 -6 514 -25 45 -32 69 -28 90 5 26 4 28 -11 15 -15 -12 -23
-7 -70 35 -62 56 -130 96 -204 118 l-53 15 0 -73 0 -73 45 -18 c25 -9 70 -39
101 -67 l55 -51 -58 -61 c-32 -33 -79 -84 -103 -113 l-45 -51 -200 113 c-110
63 -204 116 -210 118 -27 11 81 93 160 122 28 10 54 21 58 25 4 4 7 36 5 72
l-3 65 -59 -14z m-201 -391 c-9 -9 -35 8 -35 24 0 16 2 16 20 -1 11 -10 18
-20 15 -23z"/>
<path d="M3660 1729 c-20 -8 -22 -12 -10 -19 8 -5 25 -10 38 -10 12 0 38 -7
57 -14 l35 -15 -1 -363 c-1 -200 -4 -374 -8 -388 -6 -22 -15 -26 -69 -33 -118
-16 -63 -27 135 -27 108 0 193 3 189 8 -4 4 -31 14 -59 22 -36 11 -56 23 -64
40 -14 27 -18 216 -7 308 l7 52 49 0 c67 0 79 -15 199 -235 53 -99 102 -186
109 -192 7 -9 46 -13 126 -13 128 0 143 10 56 39 -29 10 -64 29 -78 42 -31 28
-224 351 -224 373 0 3 19 16 43 30 86 51 117 101 117 189 -1 94 -50 164 -140
197 -46 17 -464 25 -500 9z m371 -39 c57 -16 102 -51 127 -100 27 -54 28 -111
3 -166 -30 -65 -69 -85 -198 -99 l-63 -7 0 191 0 191 48 0 c26 0 63 -5 83 -10z"/>
<path d="M3197 1279 c-37 -20 -39 -22 -34 -62 6 -61 -11 -134 -36 -153 l-22
-15 25 3 c32 4 48 39 56 119 5 53 12 70 37 97 35 37 28 40 -26 11z"/>
<path d="M2526 1249 c15 -15 39 -33 54 -39 23 -10 28 -19 33 -60 12 -100 48
-130 153 -130 46 0 58 4 86 31 24 22 27 29 13 24 -63 -20 -116 -28 -147 -19
-40 11 -69 63 -71 128 l-2 45 -73 23 -72 24 26 -27z"/>
<path d="M3072 1188 c-13 -13 -15 -37 -6 -62 12 -32 34 -11 48 47 5 22 3 27
-12 27 -10 0 -23 -5 -30 -12z"/>
<path d="M2687 1170 c-4 -14 -7 -28 -7 -32 0 -13 31 -38 48 -38 14 0 14 2 -2
13 -10 7 -21 29 -25 47 -7 33 -7 34 -14 10z"/>
<path d="M2762 1178 c-25 -25 -6 -68 30 -68 10 0 35 7 56 16 l37 15 -28 25
c-30 26 -75 32 -95 12z"/>
<path d="M3212 470 c-24 -10 -52 -64 -52 -99 0 -11 -8 -25 -17 -30 -17 -10
-17 -10 0 -11 14 0 17 -10 17 -65 0 -50 -4 -66 -17 -74 -14 -8 -3 -10 42 -10
41 1 52 3 35 8 -23 6 -25 12 -28 78 -3 72 -3 72 25 76 l28 4 -28 2 c-27 1 -28
2 -25 54 l3 52 48 -2 c46 -3 63 9 31 21 -20 8 -34 7 -62 -4z"/>
<path d="M3683 473 c-26 -5 -30 -18 -8 -27 10 -4 15 -19 15 -49 l0 -43 -50 0
c-66 1 -95 -26 -95 -88 0 -57 25 -86 74 -86 20 0 43 4 51 10 9 6 17 5 21 -2 6
-9 14 -9 31 -1 13 7 17 12 11 12 -10 1 -13 36 -13 141 0 77 -3 139 -7 139 -5
-1 -18 -4 -30 -6z m-9 -139 c11 -10 16 -34 16 -69 0 -45 -4 -56 -21 -65 -51
-28 -106 22 -96 88 10 57 65 83 101 46z"/>
<path d="M3460 455 c0 -8 7 -15 15 -15 8 0 15 7 15 15 0 8 -7 15 -15 15 -8 0
-15 -7 -15 -15z"/>
<path d="M3466 351 c-15 -16 -17 -24 -8 -33 7 -7 12 -36 12 -65 0 -46 -3 -55
-22 -63 -19 -7 -13 -9 26 -9 42 -1 47 1 33 12 -13 9 -17 32 -19 96 -3 83 -3
83 -22 62z"/>
<path d="M1505 348 c-34 -20 -57 -58 -35 -58 6 0 15 11 22 24 21 47 68 43 68
-4 0 -19 -6 -31 -19 -35 -30 -9 -71 -52 -71 -75 0 -16 6 -20 33 -19 17 1 25 3
15 6 -28 7 -29 33 -3 59 13 13 29 24 35 24 14 0 13 -53 -2 -69 -9 -10 -9 -12
-1 -7 6 3 14 2 18 -4 8 -13 42 -13 50 0 4 6 1 9 -7 8 -9 -2 -14 17 -18 70 -6
89 -30 111 -85 80z"/>
<path d="M1783 335 c-12 -14 -17 -25 -12 -25 5 0 9 -27 9 -59 0 -48 -3 -60
-17 -64 -10 -3 5 -5 32 -5 28 0 42 2 32 5 -15 4 -17 14 -15 71 3 63 5 67 31
76 46 16 62 -1 65 -73 3 -56 1 -62 -20 -71 -18 -7 -12 -9 32 -9 43 0 50 2 33
9 -21 8 -23 16 -23 80 0 66 -2 71 -25 82 -21 9 -32 8 -60 -5 -28 -13 -34 -14
-37 -2 -2 10 -9 7 -25 -10z"/>
<path d="M2075 353 c27 -7 45 -23 45 -39 0 -10 -13 -14 -45 -14 -47 0 -57 13
-32 39 10 11 9 13 -3 9 -8 -2 -23 -21 -33 -41 -16 -31 -17 -42 -7 -72 6 -19
20 -40 30 -45 28 -15 84 -12 106 6 19 15 19 16 -1 8 -58 -22 -115 9 -115 62 0
23 3 24 65 24 39 0 65 4 65 10 0 20 -49 60 -72 59 -20 -1 -21 -2 -3 -6z"/>
<path d="M2642 344 c-32 -22 -25 -55 17 -76 54 -27 68 -45 53 -68 -10 -16 -9
-18 3 -14 24 10 30 52 10 74 -10 11 -24 20 -32 20 -7 0 -22 9 -34 21 -16 16
-18 23 -8 35 17 21 46 17 63 -8 16 -22 16 -22 16 -1 0 35 -49 44 -88 17z"/>
<path d="M2944 350 c-56 -22 -72 -103 -29 -145 13 -14 31 -25 39 -25 11 0 8 7
-9 25 -50 49 -23 145 40 145 63 0 90 -96 40 -145 -17 -18 -20 -25 -9 -25 30 0
64 47 64 89 0 67 -69 108 -136 81z"/>
<path d="M3855 353 c27 -7 45 -23 45 -39 0 -10 -13 -14 -45 -14 -47 0 -57 13
-32 39 10 11 9 13 -3 9 -8 -2 -23 -21 -33 -41 -16 -31 -17 -42 -7 -72 6 -19
20 -40 30 -45 28 -15 84 -12 106 6 19 15 19 16 -1 8 -58 -22 -115 9 -115 62 0
23 3 24 65 24 39 0 65 4 65 10 0 20 -49 60 -72 59 -20 -1 -21 -2 -3 -6z"/>
<path d="M4005 348 c-34 -20 -57 -58 -35 -58 6 0 15 11 22 24 21 47 68 43 68
-4 0 -19 -6 -31 -19 -35 -30 -9 -71 -52 -71 -75 0 -16 6 -20 33 -19 17 1 25 3
15 6 -28 7 -29 33 -3 59 13 13 29 24 35 24 14 0 13 -53 -2 -69 -9 -10 -9 -12
-1 -7 6 3 14 2 18 -4 8 -13 42 -13 50 0 4 6 1 9 -7 8 -9 -2 -14 17 -18 70 -6
89 -30 111 -85 80z"/>
<path d="M4177 347 c-30 -21 -18 -58 27 -83 50 -28 61 -47 40 -68 -8 -9 -12
-16 -7 -16 17 0 33 24 33 51 0 22 -9 32 -42 51 -28 15 -43 30 -43 43 0 27 32
31 57 8 20 -18 20 -17 17 2 -5 25 -55 32 -82 12z"/>
<path d="M2221 309 c21 -23 36 -46 32 -52 -3 -6 -2 -7 4 -4 5 3 20 -7 31 -23
21 -27 21 -30 4 -39 -13 -8 -7 -10 29 -11 l45 0 -43 46 c-24 26 -43 50 -43 53
0 4 13 21 29 39 l30 32 -27 0 c-17 0 -22 -3 -15 -8 10 -6 9 -13 -3 -31 l-16
-22 -24 22 c-18 17 -21 25 -12 31 8 5 -1 8 -23 8 l-36 0 38 -41z"/>
<path d="M2393 343 c14 -4 17 -16 17 -72 0 -39 5 -72 12 -79 15 -15 53 -15 80
-1 14 8 22 8 27 0 4 -5 17 -8 29 -5 19 6 20 8 8 26 -10 14 -12 37 -9 79 l6 59
-34 -1 c-19 -1 -26 -3 -16 -6 14 -4 17 -16 17 -67 0 -58 -2 -64 -25 -74 -34
-16 -40 -15 -59 4 -11 11 -16 35 -16 80 0 63 0 64 -27 63 -17 -1 -21 -3 -10
-6z"/>
<path d="M2219 214 c-7 -9 -22 -20 -34 -24 -15 -7 -9 -9 25 -9 36 0 41 2 27
10 -14 8 -16 14 -6 25 6 8 9 14 6 14 -2 0 -11 -7 -18 -16z"/>
<path d="M2620 217 c0 -20 17 -39 31 -35 10 2 8 9 -8 25 -13 12 -23 17 -23 10z"/>
<path d="M4160 205 c0 -16 22 -30 39 -23 5 1 -2 11 -15 21 -21 16 -24 16 -24
2z"/>
</g>
</svg>
