<?xml version="1.0" standalone="no"?>
<!DOCTYPE svg PUBLIC "-//W3C//DTD SVG 20010904//EN"
 "http://www.w3.org/TR/2001/REC-SVG-20010904/DTD/svg10.dtd">
<svg version="1.0" xmlns="http://www.w3.org/2000/svg"
 width="815.000000pt" height="306.000000pt" viewBox="0 0 815.000000 306.000000"
 preserveAspectRatio="xMidYMid meet">

<g transform="translate(0.000000,306.000000) scale(0.100000,-0.100000)"
fill="#000000" stroke="none">
<path d="M1492 2261 c-6 -3 -25 -45 -42 -91 -17 -47 -37 -98 -44 -115 -7 -16
-32 -79 -54 -140 -170 -469 -194 -526 -228 -556 -11 -9 -45 -20 -77 -24 -32
-3 -57 -8 -55 -10 10 -8 360 -16 354 -7 -3 5 -35 13 -72 17 -45 5 -67 12 -71
22 -6 14 53 209 96 323 l17 45 145 2 c79 2 150 -1 157 -5 16 -11 124 -330 120
-357 -3 -17 -13 -21 -66 -25 -34 -3 -63 -9 -65 -15 -1 -6 65 -11 181 -13 110
-1 182 1 182 7 0 5 -24 16 -53 25 -38 11 -57 23 -69 43 -14 24 -70 179 -143
398 -13 37 -106 288 -154 417 -22 56 -38 72 -59 59z m-2 -173 c7 -18 20 -53
30 -78 63 -156 91 -243 82 -252 -12 -12 -256 -7 -269 5 -15 16 115 357 137
357 4 0 13 -15 20 -32z"/>
<path d="M2600 2234 c-14 -2 -51 -9 -83 -15 -171 -31 -326 -179 -372 -354 -36
-141 2 -315 90 -407 121 -127 224 -168 419 -168 146 0 281 29 338 72 22 16 23
26 28 157 3 77 8 143 12 147 4 4 31 9 60 11 71 6 89 13 63 23 -30 13 -425 12
-425 0 0 -5 15 -10 33 -10 18 0 57 -7 85 -15 46 -14 52 -19 58 -50 3 -18 4
-77 2 -130 -3 -96 -3 -98 -36 -125 -48 -40 -106 -53 -214 -48 -73 3 -104 9
-141 28 -97 49 -197 170 -231 280 -20 63 -18 212 3 289 24 88 120 209 201 251
78 41 248 53 336 23 57 -19 132 -91 161 -152 10 -22 22 -41 26 -41 4 0 7 37 5
82 l-3 83 -40 19 c-22 11 -65 25 -95 33 -58 14 -237 25 -280 17z"/>
<path d="M6411 2198 c-7 -24 -48 -135 -91 -248 -43 -113 -85 -223 -93 -245
-96 -267 -140 -363 -178 -382 -13 -7 -43 -13 -66 -13 -23 0 -45 -4 -48 -10 -4
-7 57 -10 177 -9 177 1 187 5 66 24 -27 4 -38 11 -38 23 0 9 26 94 58 187 l57
170 152 3 c179 3 153 24 224 -185 61 -177 61 -188 12 -197 -21 -3 -53 -6 -70
-6 -18 0 -33 -4 -33 -10 0 -6 31 -10 73 -10 39 0 123 -3 186 -7 93 -5 113 -4
109 7 -2 8 -25 21 -51 29 -25 9 -51 21 -57 27 -11 11 -32 68 -126 334 -30 85
-89 246 -131 358 -67 179 -78 202 -98 202 -17 0 -25 -9 -34 -42z m16 -125 c23
-52 110 -288 117 -315 l6 -28 -140 0 c-77 0 -140 3 -140 8 0 16 23 89 40 127
9 22 34 84 54 138 21 53 41 97 44 97 4 0 13 -12 19 -27z"/>
<path d="M3860 2213 c-80 -13 -181 -67 -254 -134 -59 -54 -70 -57 -99 -32 -19
18 -19 17 -2 -17 l17 -36 -42 -81 c-50 -98 -65 -181 -57 -313 4 -70 12 -110
30 -150 78 -175 213 -295 385 -341 l62 -17 0 69 c0 52 -3 69 -14 69 -61 0
-206 107 -265 197 -54 80 -76 208 -56 316 9 45 18 52 46 36 13 -6 65 -22 118
-36 108 -27 198 -56 233 -73 12 -7 59 -48 104 -92 l81 -79 6 83 c9 115 20 127
175 194 75 32 78 31 88 -64 8 -81 -7 -176 -41 -247 -36 -78 -139 -178 -209
-205 -33 -12 -38 -3 -21 37 16 37 20 128 7 137 -4 2 -17 -3 -29 -12 -21 -16
-21 -22 -15 -167 l7 -150 25 3 c14 2 61 20 105 41 284 136 398 496 248 779
-28 52 -33 69 -27 100 l7 37 -22 -19 c-22 -20 -22 -20 -69 26 -67 64 -169 121
-244 135 l-28 5 1 -68 0 -69 67 -33 c37 -18 87 -50 111 -72 l44 -40 -74 -78
c-41 -42 -90 -96 -109 -119 -19 -24 -38 -43 -42 -43 -4 0 -45 21 -90 46 -46
26 -112 62 -148 82 -36 19 -76 42 -90 51 -14 9 -42 26 -64 36 -45 23 -53 39
-35 62 25 29 132 94 176 105 l43 10 0 69 c0 38 -3 68 -7 68 -5 -1 -19 -4 -33
-6z m-232 -385 c19 -19 14 -30 -10 -26 -13 2 -24 11 -26 21 -4 20 18 23 36 5z"/>
<path d="M4832 2203 c-38 -7 -20 -26 37 -39 29 -6 58 -17 64 -23 15 -15 10
-790 -5 -808 -5 -7 -36 -15 -69 -19 -117 -13 -55 -24 136 -24 107 0 195 4 195
8 0 5 -25 15 -55 22 -30 7 -59 18 -65 25 -12 14 -13 45 -11 238 l1 157 61 0
c50 0 64 -4 81 -22 17 -20 127 -214 215 -380 l25 -48 126 0 c129 0 144 7 60
30 -27 7 -58 25 -76 44 -30 31 -102 131 -102 141 0 3 -10 22 -23 43 -13 20
-45 76 -71 123 l-47 87 53 32 c93 57 122 103 121 196 -1 124 -74 194 -224 214
-73 9 -382 11 -427 3z m435 -69 c65 -40 93 -91 93 -169 0 -50 -5 -69 -27 -103
-15 -23 -42 -49 -59 -57 -39 -18 -175 -40 -198 -32 -14 6 -16 30 -16 203 l0
197 80 -5 c66 -4 87 -10 127 -34z"/>
<path d="M4330 1721 l-34 -19 -1 -75 c0 -63 -4 -81 -23 -107 -21 -28 -22 -31
-5 -28 23 4 52 86 53 147 0 35 6 51 27 73 31 33 30 33 -17 9z"/>
<path d="M3627 1698 c10 -11 34 -28 54 -39 33 -17 37 -22 43 -75 8 -69 18 -90
56 -109 38 -19 133 -19 170 0 32 17 43 43 13 30 -39 -17 -142 -18 -166 -2 -25
16 -63 126 -53 153 3 8 4 14 3 14 -1 0 -33 11 -70 24 -64 22 -67 23 -50 4z"/>
<path d="M4203 1633 c-15 -6 -17 -51 -3 -73 7 -12 12 -7 25 22 23 56 18 68
-22 51z"/>
<path d="M3870 1615 c-16 -20 -3 -54 24 -61 13 -3 40 2 61 10 l38 16 -23 25
c-27 28 -80 34 -100 10z"/>
<path d="M3795 1580 c9 -30 13 -35 21 -27 3 3 -2 16 -11 29 l-17 23 7 -25z"/>
<path d="M4362 881 c-10 -6 -4 -10 19 -15 35 -7 45 -3 34 13 -7 13 -35 14 -53
2z"/>
<path d="M4840 878 c-22 -8 -23 -10 -7 -19 12 -7 17 -23 17 -59 0 -28 -5 -50
-10 -50 -7 0 -7 -6 0 -19 5 -11 10 -49 10 -85 0 -36 3 -66 8 -66 13 0 38 20
25 20 -9 0 -13 39 -15 144 l-3 143 -25 -9z"/>
<path d="M4616 871 c-4 -7 -5 -15 -2 -18 9 -9 19 4 14 18 -4 11 -6 11 -12 0z"/>
<path d="M4309 835 c-13 -21 -21 -92 -20 -167 2 -66 0 -77 -16 -81 -10 -3 7
-5 37 -5 42 -1 50 1 33 8 -21 8 -23 16 -23 79 0 64 2 70 23 74 l22 4 -22 2
c-19 1 -22 8 -25 49 -2 26 -6 43 -9 37z"/>
<path d="M2600 740 c17 -17 20 -31 17 -81 -4 -66 8 -95 33 -79 10 6 11 10 3
10 -9 0 -13 21 -13 69 0 71 -14 101 -46 101 -10 0 -9 -5 6 -20z"/>
<path d="M2930 750 c0 -5 9 -10 19 -10 25 0 31 -19 31 -90 0 -47 -3 -59 -17
-63 -10 -3 2 -5 27 -6 35 0 41 2 28 10 -14 8 -18 24 -18 74 0 44 -5 68 -16 79
-17 18 -54 22 -54 6z"/>
<path d="M3148 753 c7 -3 16 -2 19 1 4 3 -2 6 -13 5 -11 0 -14 -3 -6 -6z"/>
<path d="M3800 747 c27 -15 36 -14 25 2 -3 6 -16 11 -28 11 -21 0 -21 -1 3
-13z"/>
<path d="M4098 753 c7 -3 16 -2 19 1 4 3 -2 6 -13 5 -11 0 -14 -3 -6 -6z"/>
<path d="M4611 746 c-11 -13 -11 -20 -3 -28 7 -7 12 -36 12 -65 0 -46 -3 -55
-22 -63 -19 -7 -15 -9 21 -9 38 -1 42 1 28 12 -12 9 -17 31 -19 91 -3 70 -5
77 -17 62z"/>
<path d="M4778 753 c7 -3 16 -2 19 1 4 3 -2 6 -13 5 -11 0 -14 -3 -6 -6z"/>
<path d="M5018 753 c7 -3 16 -2 19 1 4 3 -2 6 -13 5 -11 0 -14 -3 -6 -6z"/>
<path d="M5215 751 c17 -7 21 -20 25 -87 4 -68 8 -79 25 -83 17 -3 18 -1 6 13
-10 11 -12 31 -7 67 8 60 -11 99 -47 98 -21 0 -21 -1 -2 -8z"/>
<path d="M5395 753 c11 -3 26 -10 33 -15 8 -7 12 -7 12 0 0 12 -25 22 -48 21
-13 -1 -12 -3 3 -6z"/>
<path d="M2846 731 c-11 -12 -14 -21 -7 -26 6 -3 11 -28 11 -55 0 -36 -5 -52
-17 -59 -14 -8 -8 -10 27 -10 25 1 37 3 27 6 -16 4 -18 15 -16 79 1 41 0 77
-3 79 -3 3 -13 -3 -22 -14z"/>
<path d="M3090 718 c-11 -18 -20 -44 -20 -58 0 -54 57 -99 102 -80 23 9 22 9
-3 9 -37 1 -68 30 -75 69 l-6 32 71 0 c39 0 71 4 71 9 0 5 -9 19 -19 32 l-19
24 5 -28 c5 -27 5 -27 -46 -27 -52 0 -65 12 -39 38 7 7 9 12 5 12 -4 0 -16
-15 -27 -32z"/>
<path d="M3312 708 c18 -23 45 -56 61 -72 32 -36 33 -43 10 -49 -10 -3 1 -5
24 -6 l41 -1 -31 33 c-56 59 -97 112 -97 125 0 6 -9 12 -21 12 -19 0 -18 -3
13 -42z"/>
<path d="M3398 743 c7 -3 16 -2 19 1 4 3 -2 6 -13 5 -11 0 -14 -3 -6 -6z"/>
<path d="M3500 687 c0 -75 18 -107 58 -106 l27 1 -25 7 c-29 8 -39 43 -32 114
4 39 2 47 -12 47 -13 0 -16 -11 -16 -63z"/>
<path d="M3628 664 c3 -71 6 -85 19 -80 8 3 20 6 26 6 7 0 4 5 -5 11 -15 8
-18 24 -18 79 0 49 -4 70 -12 70 -10 0 -12 -22 -10 -86z"/>
<path d="M3734 736 c-11 -29 2 -50 44 -71 25 -12 46 -30 51 -45 8 -22 10 -23
16 -7 9 21 -25 63 -59 73 -26 9 -45 34 -39 51 3 7 2 13 -1 13 -4 0 -9 -6 -12
-14z"/>
<path d="M4031 724 c-33 -42 -25 -113 14 -128 13 -4 14 -2 5 14 -16 29 -12
106 6 124 8 9 11 16 5 16 -5 0 -19 -12 -30 -26z"/>
<path d="M4167 713 c18 -45 10 -97 -20 -118 -12 -8 -17 -15 -11 -15 6 0 23 9
38 21 20 16 26 29 26 60 0 45 -12 74 -34 82 -12 5 -12 1 1 -30z"/>
<path d="M4721 729 c-25 -27 -32 -58 -23 -94 10 -37 57 -65 92 -55 l25 8 -26
1 c-58 2 -90 86 -53 139 19 28 11 29 -15 1z"/>
<path d="M5066 728 c6 -28 6 -28 -46 -28 -47 0 -52 2 -47 20 6 25 -1 26 -19 3
-16 -21 -18 -87 -4 -112 14 -27 61 -44 91 -32 l24 10 -28 0 c-35 1 -77 42 -77
76 0 24 2 25 65 25 69 0 79 9 50 46 -15 18 -15 18 -9 -8z"/>
<path d="M5154 725 c-9 -14 -14 -28 -11 -31 3 -3 12 9 20 25 19 38 14 40 -9 6z"/>
<path d="M2522 719 c-7 -12 -11 -24 -7 -27 7 -8 25 17 25 36 0 17 -3 15 -18
-9z"/>
<path d="M5340 715 c0 -19 10 -30 43 -46 48 -25 59 -37 53 -62 -2 -9 0 -15 5
-11 5 3 9 18 9 33 0 24 -7 32 -45 50 -31 15 -45 27 -45 41 0 11 -4 20 -10 20
-5 0 -10 -11 -10 -25z"/>
<path d="M2532 630 c-24 -39 -8 -71 25 -51 17 10 17 10 1 11 -21 0 -24 30 -6
48 7 7 8 12 2 12 -5 0 -15 -9 -22 -20z"/>
<path d="M5155 626 c-14 -21 -15 -29 -5 -40 6 -8 18 -12 26 -9 12 4 12 7 -3
18 -15 11 -15 15 -4 29 8 9 11 19 8 22 -3 3 -13 -6 -22 -20z"/>
<path d="M5340 605 c0 -9 7 -18 15 -22 23 -8 24 0 3 20 -15 14 -18 15 -18 2z"/>
<path d="M3730 600 c0 -6 7 -13 15 -17 24 -9 27 1 5 15 -13 8 -20 8 -20 2z"/>
<path d="M3275 590 c-16 -7 -11 -9 20 -9 29 -1 36 2 25 9 -17 11 -19 11 -45 0z"/>
</g>
</svg>
