<?xml version="1.0" encoding="utf-8"?>
<!-- Generator: Adobe Illustrator 24.0.2, SVG Export Plug-In . SVG Version: 6.00 Build 0)  -->
<svg version="1.1" id="Layer_1" xmlns="http://www.w3.org/2000/svg" xmlns:xlink="http://www.w3.org/1999/xlink" x="0px" y="0px"
	 viewBox="0 0 866.2 545.4" style="enable-background:new 0 0 866.2 545.4;" xml:space="preserve">
<style type="text/css">
	.st0{fill:#EEC9C3;}
	.st1{fill:#A61F48;}
	.st2{fill:#F27F97;}
	.st3{fill:#FFF5EE;}
	.st4{opacity:0.5;fill:#D6ECE1;enable-background:new    ;}
	.st5{fill:#D1E7D9;}
	.st6{fill:#F7B119;}
	.st7{fill:#60BEC8;}
	.st8{fill:#423A64;}
	.st9{opacity:0.3;fill:#FFCC0F;enable-background:new    ;}
	.st10{fill:url(#SVGID_1_);}
	.st11{fill:url(#SVGID_2_);}
	.st12{fill:#FFFFFF;}
	.st13{fill:url(#SVGID_3_);}
	.st14{fill:#CE5E58;}
	.st15{fill:#7BBCC4;}
	.st16{fill:#E3A62A;}
	.st17{fill:#578B8C;}
	.st18{fill:#DEC598;}
	.st19{fill:#DBA538;}
	.st20{fill:#E4DFD5;}
	.st21{fill:#2C252A;}
	.st22{fill:#F28397;}
	.st23{fill:#467AA5;}
	.st24{fill:#2FAFD7;}
	.st25{fill:#B0D9AA;}
	.st26{fill:#D18529;}
	.st27{fill:#CB872A;}
	.st28{fill:#B73550;}
	.st29{fill:#855BA5;}
	.st30{fill:#6B6175;}
	.st31{fill:#58595B;}
	.st32{fill:#D35D2C;}
	.st33{fill:#A52B31;}
	.st34{fill:#E95646;}
	.st35{fill:#91BED3;}
	.st36{fill:#7CA2B4;}
	.st37{fill:#F0EFEF;}
	.st38{fill:#C9C9C8;}
	.st39{fill:#87C3B9;}
	.st40{fill:#7B9E9D;}
	.st41{fill:#8A65A5;}
	.st42{fill:#85679D;}
	.st43{fill:#F1F1F2;}
	.st44{fill:#354343;}
	.st45{fill:#E6AD46;}
	.st46{fill:#DF912E;}
	.st47{fill:#7EA3AA;}
	.st48{fill:#F0AD72;}
	.st49{fill:#F1E292;}
	.st50{opacity:0.72;}
	.st51{fill:#D1203D;}
	.st52{opacity:0.69;}
	.st53{fill:#E64A00;}
	.st54{fill:#C7D3E0;}
	.st55{opacity:0.55;fill:#C7D3E0;enable-background:new    ;}
	.st56{fill:#DCE1E5;}
	.st57{fill:#CC9987;}
	.st58{fill:url(#SVGID_4_);}
	.st59{fill:#151823;}
	.st60{fill:#282A35;}
	.st61{fill:#2A4FC6;}
	.st62{fill:#102B8C;}
	.st63{fill:#DBB2A5;}
	.st64{fill:#FFDF5A;}
	.st65{fill:#A2A2A3;}
	.st66{fill:#7F1C5C;}
	.st67{opacity:0.33;}
	.st68{fill:#EFF4F4;}
	.st69{opacity:0.42;fill:#C7D3E0;enable-background:new    ;}
	.st70{fill:#552D38;}
	.st71{fill:#E2DFD0;}
	.st72{opacity:0.5;fill:#552D38;enable-background:new    ;}
	.st73{fill:#DA6459;}
	.st74{fill:#C6D0CE;}
	.st75{opacity:0.5;fill:#D0D7D6;enable-background:new    ;}
	.st76{fill:#316F85;}
	.st77{fill:#F7B4C1;}
	.st78{fill:#A2CDBD;}
	.st79{fill:#F2AD1C;}
	.st80{opacity:0.35;fill:#316F85;enable-background:new    ;}
	.st81{fill:#D3A594;}
	.st82{fill:#333333;}
	.st83{fill:#2D2D2D;}
	.st84{fill:#934769;}
	.st85{fill:#F1F1F1;}
</style>
<title>online education</title>
<g>
	<g id="Layer_3">
		<path class="st0" d="M363.8,173.5c0,0-75.8-93.8-128.2-35.6s-20.9,83.3-111.6,96.8c-81.4,12.1-30.7,149.6-30.7,149.6
			S326.2,329.9,363.8,173.5z"/>
		<path class="st1" d="M477.1,311c0,0-43.6-151.9-113.7-145.5c-113.6,10.4-29.9,93.6-111.4,80.9C178.8,235.1,173,374.1,173,374.1
			S346,340.5,477.1,311z"/>
		<path class="st2" d="M407,208.8c0,0,22.3-43,15.9-63.6c-10.2-32.8-39.8-26.7-30-54.1S371.4,60.3,353,47.1s-49.2-18.2-53-4
			c-3.9,14.2,27.1,8.6,28.2,26.1s-14.9,37.4,4.2,44.4s36.4-5.1,23.3,19.7S339.2,211.3,407,208.8z"/>
		<path class="st3" d="M401.9,192.6c-0.3,0-0.5-0.2-0.6-0.5c-0.2-1.3-15.8-129.8-88.8-145.7c-0.3-0.1-0.5-0.4-0.5-0.7
			c0.1-0.3,0.4-0.5,0.7-0.5c21.3,4.7,51.2,22.2,72.9,79.5c8,21.7,13.7,44.2,16.8,67.2C402.6,192.3,402.3,192.5,401.9,192.6
			L401.9,192.6z"/>
		<path class="st3" d="M398.3,171.3c-0.2,0-0.4-0.1-0.5-0.4c-10.8-25.2-37.7-30.2-38-30.3c-0.3-0.1-0.5-0.4-0.5-0.7
			c0.1-0.3,0.4-0.5,0.7-0.5c0,0,0,0,0,0c0.3,0,26.6,5,38.1,29.3c1.3-6.2,5.8-26.8,11.4-38c0.1-0.3,0.5-0.4,0.8-0.3c0,0,0,0,0,0
			c0.3,0.1,0.4,0.5,0.3,0.8c0,0,0,0,0,0c-6.5,13-11.6,39.3-11.6,39.5C398.8,171.1,398.6,171.3,398.3,171.3L398.3,171.3z"/>
		<path class="st3" d="M382.8,119.7c-0.2,0-0.5-0.2-0.5-0.4c-3.9-10.2-35.4-22.2-35.8-22.3c-0.3-0.1-0.5-0.4-0.3-0.7
			c0.1-0.3,0.4-0.5,0.8-0.3l0,0c1.2,0.5,27.1,10.3,34.8,20.2c-1.2-7.7-3.3-27.6,2.8-40.8c0.1-0.3,0.5-0.4,0.7-0.3c0,0,0,0,0,0
			c0.3,0.1,0.4,0.5,0.3,0.8c-7.5,16.2-2.2,43-2.2,43.2c0.1,0.3-0.1,0.6-0.4,0.7C383,119.7,382.9,119.7,382.8,119.7z"/>
		<path class="st3" d="M363.4,83.2c-0.2,0-0.4-0.1-0.5-0.3c-4.3-6.4-32.5-21.5-32.8-21.6c-0.2-0.2-0.2-0.6,0-0.8
			c0.1-0.2,0.4-0.2,0.6-0.2c1,0.5,20.8,11.1,29.7,18.4c-3.5-6-9.2-16.9-9.1-24.1c0-0.3,0.2-0.6,0.5-0.6c0,0,0,0,0.1,0
			c0.3,0,0.6,0.3,0.6,0.6c-0.1,9.8,11.4,27.6,11.6,27.7c0.2,0.3,0.1,0.6-0.2,0.8c0,0,0,0,0,0C363.6,83.2,363.5,83.2,363.4,83.2z"/>
		<path class="st4" d="M510.8,23.5h-74.7c0,0-2.1-2.4,5.7-4s11,4.8,18.2-10.9c3.1-6.8,10.7-9.7,17.7-8.3s10.1,14.1,14.9,12.3
			s2.2-11.6,13-12.4s9.3,11.4,12.9,14.9s5-4.8,8.9-3s2.9,6.8,6.7,6.8s11.3,1.4,13.9,3.2S510.8,23.5,510.8,23.5z"/>
		<path class="st4" d="M121.9,138.3H47.2c0,0-2.1-2.4,5.7-4s11,4.8,18.2-10.9c3.1-6.8,10.7-9.7,17.7-8.3s10.1,14.1,14.9,12.3
			s2.2-11.6,13-12.4s9.3,11.4,12.9,14.9s5-4.8,8.9-3s2.9,6.8,6.7,6.8s11.3,1.4,13.9,3.2S121.9,138.3,121.9,138.3z"/>
		<path class="st4" d="M805.9,220.6h-74.7c0,0-2.1-2.4,5.7-4s11,4.8,18.2-10.8c3.1-6.8,10.7-9.7,17.7-8.3s10.1,14.1,14.9,12.3
			s2.2-11.6,13-12.3s9.3,11.4,12.9,14.9s5-4.8,8.9-3s2.9,6.8,6.7,6.8s11.3,1.4,13.9,3.2S805.9,220.6,805.9,220.6z"/>
		<circle class="st0" cx="617.5" cy="253.2" r="158.3"/>
		<path class="st5" d="M0,435.8c0,0,64.8-185.1,205.9-104.3c82.5,47.2,109.3-133.8,180.4-156.9c222.9-72.3,210.6,184.4,271.9,191.4
			c61.1,7,152.7-50.3,208,69.7H0z"/>
		<path class="st6" d="M670.7,400.2c0,0-25-41.5-20-62.4c8-33.4,38-29.3,26.4-55.9s19.4-32.2,36.8-46.6s47.8-21.4,52.7-7.5
			s-26.5,10.4-26.5,27.9s17.3,36.4-1.3,44.6s-36.6-2.7-22,21.2S738.5,398.2,670.7,400.2z"/>
		<path class="st3" d="M674.6,383.6L674.6,383.6c-0.3,0-0.6-0.3-0.6-0.6c0,0,0,0,0,0c1.6-23.1,5.8-45.9,12.4-68.1
			c9.8-32.3,29.5-73.2,67.5-84.2c0.3-0.1,0.6,0.1,0.7,0.4c0.1,0.3-0.1,0.6-0.4,0.7c-71.7,20.7-78.9,149.9-79,151.2
			C675.2,383.4,674.9,383.7,674.6,383.6C674.6,383.6,674.6,383.6,674.6,383.6z"/>
		<path class="st3" d="M676.9,362.2L676.9,362.2c-0.3,0-0.5-0.2-0.5-0.4c-0.1-0.3-6.8-26.1-14.2-38.7c-0.2-0.3-0.1-0.6,0.2-0.8
			c0,0,0,0,0,0c0.3-0.2,0.6-0.1,0.8,0.2c0,0,0,0,0,0c6.3,10.8,12.2,31.1,13.8,37.2c9.9-25,35.8-31.7,36.1-31.7
			c0.3-0.1,0.6,0.1,0.8,0.4c0.1,0.3-0.1,0.6-0.4,0.8c0,0-0.1,0-0.1,0c-0.3,0.1-26.8,6.9-35.9,32.7
			C677.3,362,677.1,362.2,676.9,362.2z"/>
		<path class="st3" d="M688.9,309.6h-0.1c-0.3-0.1-0.5-0.3-0.5-0.7c0-0.3,3.6-27.4-5-43c-0.2-0.3-0.1-0.6,0.2-0.8
			c0.3-0.2,0.6,0,0.8,0.2c7,12.7,6.1,32.8,5.5,40.5c7-10.3,32.2-21.9,33.4-22.4c0.3-0.1,0.6,0,0.8,0.3c0.1,0.3,0,0.6-0.3,0.8
			c-0.3,0.1-31,14.2-34.2,24.6C689.3,309.5,689.1,309.6,688.9,309.6z"/>
		<path class="st3" d="M705.9,271.9c-0.1,0-0.2,0-0.3-0.1c-0.3-0.2-0.4-0.5-0.2-0.8c0.1-0.2,10.5-18.7,9.7-28.4
			c0-0.3,0.2-0.6,0.5-0.6c0.3,0,0.6,0.2,0.6,0.5c0.6,7.2-4.4,18.5-7.5,24.7c8.3-7.8,27.4-19.7,28.4-20.3c0.3-0.2,0.6,0,0.8,0.3
			c0.1,0.3,0.1,0.6-0.2,0.7c-0.3,0.2-27.5,17-31.3,23.7C706.3,271.8,706.1,271.9,705.9,271.9z"/>
		<path class="st7" d="M666.3,412.5c0,0,2.3-48.4,18.1-63c25.3-23.3,47.8-3.2,53.1-31.7s34-16,56.6-18.2s51.7,8.9,47.9,23.1
			s-27.8-6.1-37.5,8.4s-5.9,39.9-25.9,36.3s-28.9-22.7-30,5.3S723.8,448.7,666.3,412.5z"/>
		<path class="st3" d="M679.1,401c-0.1,0-0.2,0-0.3-0.1c-0.3-0.2-0.3-0.6-0.1-0.8c14.2-18.3,30.4-34.9,48.2-49.7
			c26.2-21.4,65.3-44.4,102.9-32.3c0.3,0.1,0.5,0.4,0.4,0.7c-0.1,0.3-0.4,0.5-0.7,0.4c0,0,0,0,0,0c-71.1-22.8-149.1,80.5-149.8,81.6
			C679.4,401,679.3,401,679.1,401z"/>
		<path class="st3" d="M693,384.4c-0.3,0-0.6-0.3-0.6-0.6c0-0.1,0-0.1,0-0.2c0.1-0.3,8.9-25.5,9.8-40c0-0.3,0.2-0.5,0.5-0.6
			c0,0,0.1,0,0.1,0c0.3,0,0.6,0.3,0.6,0.6c0,0,0,0,0,0c-0.8,12.4-7.3,32.6-9.3,38.6c22.2-15.3,47.4-6.3,47.7-6.2
			c0.3,0.1,0.5,0.5,0.4,0.8c0,0,0,0,0,0c-0.1,0.3-0.4,0.5-0.8,0.3c-0.3-0.1-26.1-9.2-48.1,7.2C693.2,384.4,693.1,384.4,693,384.4z"
			/>
		<path class="st3" d="M732.2,347.5c-0.2,0-0.3-0.1-0.4-0.2c-0.2-0.2-0.2-0.6,0-0.8c0.2-0.2,18.2-20.7,19.8-38.5
			c0-0.3,0.3-0.6,0.6-0.5c0,0,0,0,0,0c0.3,0,0.6,0.3,0.5,0.6c-1.3,14.5-13.2,30.7-18,36.7c11.5-4.7,38.9-0.2,40.2,0
			c0.3,0.1,0.5,0.4,0.5,0.7c-0.1,0.3-0.4,0.5-0.7,0.5c-0.3,0-33.7-5.5-42.1,1.4C732.5,347.5,732.4,347.5,732.2,347.5z"/>
		<path class="st3" d="M767.4,325.7c-0.3,0-0.6-0.3-0.6-0.6c0-0.2,0.1-0.4,0.3-0.5c0.2-0.1,19.1-9.7,23.9-18.2
			c0.1-0.3,0.5-0.4,0.8-0.3c0.3,0.1,0.4,0.5,0.3,0.8c0,0,0,0.1-0.1,0.1c-3.5,6.3-14,12.9-20,16.3c11.3-1.9,33.8-1.1,34.9-1
			c0.3,0,0.6,0.2,0.7,0.5c0,0.3-0.2,0.6-0.5,0.7c-0.1,0-0.1,0-0.2,0c-0.3,0-32.3-1.1-39.2,2.3C767.6,325.7,767.5,325.7,767.4,325.7z
			"/>
		<path class="st2" d="M408,251.4c0,0,55-20.2,116,19.4c54.8,35.5,21.4,96,82.2,68.7c50.4-22.7,116.8-3.8,116.5,42.5
			s64,6.8,91.3,53.8H408V251.4z"/>
		<path class="st1" d="M238.1,408.9c0,0-13.4-46.6-32.1-57.1c-29.9-16.8-47.3,7.9-59-18.7s-36.8-7.7-59.2-4.7s-48.2,20.5-41.3,33.5
			s25.6-12.3,38.5-0.5s14.9,37.5,33.5,29.4s22.9-28.7,30.5-1.7S190.5,457.3,238.1,408.9z"/>
		<path class="st3" d="M222.9,400.7c-0.1,0-0.3,0-0.4-0.1c-1-0.8-100.6-83.5-164.6-45c-0.3,0.1-0.6,0-0.8-0.3
			c-0.1-0.2,0-0.5,0.2-0.7c18.7-11.2,52.5-19,107.6,7.8c20.7,10.3,40.3,22.8,58.3,37.3c0.2,0.2,0.3,0.6,0.1,0.8c0,0,0,0,0,0
			C223.2,400.6,223,400.7,222.9,400.7z"/>
		<path class="st3" d="M156.6,391.9c-0.2,0-0.4-0.1-0.5-0.3c-0.2-0.3-0.1-0.6,0.2-0.8c0.2-0.2,22.8-14.7,47.8-4.9
			c-3.3-5.4-14.2-23.5-17.8-35.4c-0.1-0.3,0.1-0.6,0.4-0.7c0.3-0.1,0.6,0.1,0.7,0.4c0,0,0,0,0,0c4.2,14,18.5,36.5,18.7,36.7
			c0.2,0.3,0.1,0.6-0.2,0.8c-0.2,0.1-0.4,0.1-0.6,0c-25.1-10.9-48.2,3.9-48.4,4.1C156.8,391.8,156.7,391.9,156.6,391.9z"/>
		<path class="st3" d="M117.1,369.1c-0.3,0-0.6-0.2-0.6-0.6c0-0.2,0.1-0.5,0.4-0.6c1.2-0.5,26.8-11.1,39.1-9.2
			c-6.1-4.8-21.4-17.8-26-31.6c-0.1-0.3,0-0.6,0.3-0.7c0,0,0,0,0,0c0.3-0.1,0.6,0.1,0.7,0.4c5.6,16.9,27.9,32.8,28.1,32.9
			c0.2,0.2,0.3,0.6,0.1,0.8c-0.2,0.2-0.4,0.3-0.7,0.2c-9.8-4.8-41,8.2-41.3,8.3C117.2,369.1,117.1,369.1,117.1,369.1z"/>
		<path class="st3" d="M80.7,354.5c-0.3,0-0.6-0.3-0.6-0.6c0-0.2,0.2-0.5,0.4-0.5c1.1-0.3,22.8-6.2,34.2-7c-6.7-2-18.3-6-23.2-11.3
			c-0.2-0.2-0.2-0.6,0-0.8c0.2-0.2,0.6-0.2,0.8,0l0,0c6.6,7.2,27.2,12.2,27.5,12.2c0.3,0.1,0.5,0.4,0.4,0.7c0,0,0,0,0,0
			c-0.1,0.3-0.4,0.5-0.7,0.4c-7.5-1.7-38.4,6.7-38.7,6.8C80.8,354.5,80.8,354.5,80.7,354.5z"/>
		<path class="st8" d="M210.5,396.2c0,0,22.3-43,15.9-63.6c-10.2-32.8-39.8-26.7-30-54.1s-21.4-30.9-39.8-44.1s-49.1-18.2-53-4
			s27.1,8.6,28.3,26.1s-14.9,37.4,4.2,44.4s36.4-5.1,23.3,19.7S142.7,398.7,210.5,396.2z"/>
		<path class="st3" d="M205.5,379.9c-0.3,0-0.5-0.2-0.6-0.5c-0.1-1.3-15.8-129.8-88.8-145.7c-0.3,0-0.5-0.3-0.5-0.7
			c0-0.3,0.3-0.5,0.7-0.5c0,0,0.1,0,0.1,0c21.3,4.7,51.2,22.2,72.9,79.5c8,21.7,13.7,44.2,16.8,67.2
			C206.1,379.6,205.9,379.9,205.5,379.9L205.5,379.9z"/>
		<path class="st3" d="M201.8,358.6c-0.2,0-0.4-0.1-0.5-0.4c-10.8-25.2-37.7-30.2-38-30.3c-0.3-0.1-0.5-0.4-0.5-0.7
			c0.1-0.3,0.4-0.5,0.7-0.5c0,0,0,0,0,0c0.3,0,26.6,5,38.1,29.3c1.3-6.2,5.8-26.8,11.4-38c0.2-0.2,0.6-0.2,0.8,0
			c0.1,0.1,0.2,0.3,0.2,0.5c-6.5,13-11.6,39.3-11.6,39.5C202.3,358.4,202.1,358.6,201.8,358.6L201.8,358.6z"/>
		<path class="st3" d="M186.4,307c-0.2,0-0.5-0.2-0.5-0.4c-3.9-10.2-35.4-22.2-35.8-22.3c-0.3-0.1-0.5-0.4-0.4-0.7c0,0,0,0,0,0
			c0.1-0.3,0.5-0.5,0.8-0.3c1.2,0.5,27.1,10.3,34.8,20.2c-1.2-7.7-3.4-27.6,2.8-40.8c0.1-0.3,0.4-0.5,0.7-0.4
			c0.3,0.1,0.5,0.4,0.4,0.7c0,0,0,0.1-0.1,0.1c-7.5,16.2-2.2,43-2.2,43.2c0.1,0.3-0.1,0.6-0.4,0.7L186.4,307z"/>
		<path class="st3" d="M166.9,270.5c-0.2,0-0.4-0.1-0.5-0.3c-4.3-6.4-32.5-21.5-32.8-21.6c-0.3-0.2-0.4-0.5-0.2-0.8
			c0.2-0.3,0.5-0.4,0.8-0.2c1,0.5,20.8,11.1,29.7,18.4c-3.5-6-9.2-16.9-9.1-24.1c0-0.3,0.2-0.6,0.6-0.6c0,0,0,0,0,0l0,0
			c0.3,0,0.6,0.3,0.6,0.6c-0.1,9.8,11.4,27.6,11.6,27.7c0.2,0.3,0.1,0.6-0.2,0.8c0,0,0,0,0,0C167.1,270.5,167,270.5,166.9,270.5z"/>
		<path class="st0" d="M505.4,435.8c0,0-30.5-276.6-179.1-170.2c-39.9,28.5-56.9,64.1-81.9,57.4c-41.3-11-89.1,12.2-87.8,68.8
			c0.9,35-60.6,8.4-81.3,44H505.4z"/>
		<path class="st7" d="M590.4,435.8H244.3c0,0,34.4-41.4,92.9-34c58.5,7.4,72.7-55.4,157.2-58.4
			C573.5,340.7,590.4,435.8,590.4,435.8z"/>
		<circle class="st9" cx="302.1" cy="175.2" r="105.6"/>
		
			<linearGradient id="SVGID_1_" gradientUnits="userSpaceOnUse" x1="339.24" y1="-40.0388" x2="841.8405" y2="-40.0388" gradientTransform="matrix(1 0 0 -1 -167.92 221.17)">
			<stop  offset="0" style="stop-color:#FF83BF"/>
			<stop  offset="1" style="stop-color:#A03EB1"/>
		</linearGradient>
		<path class="st10" d="M652.9,86.1L194.4,108c-3.9,0.2-23.1,5.1-23.1,20.3v291.3c0,9.3,7.5,16.8,16.8,16.8h462
			c13.4,0.9,23.8-12.3,23.8-20.3v-311C674,95.5,665.7,84.9,652.9,86.1z"/>
		
			<linearGradient id="SVGID_2_" gradientUnits="userSpaceOnUse" x1="339.21" y1="-42.9124" x2="834.81" y2="-42.9124" gradientTransform="matrix(1 0 0 -1 -167.92 221.17)">
			<stop  offset="0" style="stop-color:#FFB4D8"/>
			<stop  offset="1" style="stop-color:#F5A2FF"/>
		</linearGradient>
		<path class="st11" d="M650.2,436.4H188.1c-9.3,0-16.8-7.5-16.8-16.8V128.3c0-9,7.1-16.4,16.1-16.8l462-19.7
			c9.3-0.4,17.1,6.8,17.5,16.1c0,0.2,0,0.5,0,0.7v311C666.9,428.8,659.4,436.3,650.2,436.4z"/>
		<polygon class="st12" points="189.9,417.8 189.9,130 648.3,110.5 648.3,417.8 		"/>
		
			<linearGradient id="SVGID_3_" gradientUnits="userSpaceOnUse" x1="208.58" y1="283.465" x2="629.68" y2="283.465" gradientTransform="matrix(1 0 0 -1 0 548)">
			<stop  offset="0" style="stop-color:#81BFEA"/>
			<stop  offset="1" style="stop-color:#BAE8FF"/>
		</linearGradient>
		<polygon class="st13" points="208.6,399.1 208.6,147.9 629.7,129.9 629.7,399.1 		"/>
		<rect x="403.7" y="244.1" class="st14" width="61.9" height="10"/>
		<rect x="407.9" y="244.1" class="st15" width="53.5" height="10"/>
		<rect x="410.1" y="244.1" class="st14" width="49.1" height="10"/>
		<rect x="423.4" y="233.2" class="st12" width="42.2" height="11"/>
		<rect x="427.7" y="233.2" class="st15" width="33.6" height="11"/>
		<rect x="430" y="233.2" class="st12" width="29" height="11"/>
		<rect x="423.4" y="222.2" class="st15" width="42.2" height="11"/>
		<rect x="427.9" y="222.2" class="st16" width="33.3" height="11"/>
		<rect x="429.8" y="222.2" class="st15" width="29.4" height="11"/>
		<rect x="465.6" y="192.2" class="st12" width="27" height="61.9"/>
		<rect x="465.6" y="199.7" class="st16" width="27" height="4.3"/>
		<rect x="465.6" y="207.9" class="st16" width="27" height="4.3"/>
		
			<rect x="494.7" y="188" transform="matrix(0.9979 -6.453231e-02 6.453231e-02 0.9979 -13.2225 32.6014)" class="st14" width="6.8" height="66"/>
		<rect x="505.1" y="188.8" class="st12" width="12.5" height="65.3"/>
		<rect x="517.7" y="201.7" class="st17" width="15.7" height="52.4"/>
		<rect x="533.4" y="185.2" class="st18" width="7.9" height="68.8"/>
		<rect x="523.4" y="209.9" class="st19" width="4.2" height="36.1"/>
		<rect x="372.2" y="183.7" class="st20" width="10.2" height="71.6"/>
		<rect x="372.2" y="183.7" class="st21" width="10.2" height="8.4"/>
		<path class="st21" d="M377.3,218.8c0.8,0,1.5,0.7,1.5,1.5v28.5c0,0.8-0.7,1.5-1.5,1.5l0,0c-0.8,0-1.5-0.7-1.5-1.5v-28.5
			C375.8,219.5,376.5,218.8,377.3,218.8L377.3,218.8z"/>
		<rect x="353.5" y="182.1" class="st22" width="17.8" height="73.3"/>
		<path class="st12" d="M353.5,209.4c-0.4,0-0.7-0.3-0.7-0.7l0,0c0-0.4,0.3-0.7,0.7-0.7h17.7c0.4,0,0.7,0.3,0.7,0.7l0,0
			c0,0.4-0.3,0.7-0.7,0.7H353.5z"/>
		<path class="st12" d="M353.5,196.3c-0.4,0-0.7-0.3-0.7-0.7l0,0c0-0.4,0.3-0.7,0.7-0.7h17.7c0.4,0,0.7,0.3,0.7,0.7l0,0
			c0,0.4-0.3,0.7-0.7,0.7H353.5z"/>
		<rect x="313.9" y="176.6" class="st23" width="9" height="78.7"/>
		
			<rect x="315.3" y="178" transform="matrix(0.7072 -0.707 0.707 0.7072 -34.8048 278.083)" class="st24" width="6.2" height="6.2"/>
		
			<rect x="315.3" y="186.6" transform="matrix(0.7071 -0.7071 0.7071 0.7071 -40.9088 280.6823)" class="st24" width="6.2" height="6.2"/>
		
			<rect x="315.3" y="195.4" transform="matrix(0.7071 -0.7071 0.7071 0.7071 -47.086 283.2352)" class="st24" width="6.2" height="6.2"/>
		
			<rect x="315.3" y="204.1" transform="matrix(0.707 -0.7072 0.7072 0.707 -53.2324 285.8567)" class="st24" width="6.2" height="6.2"/>
		
			<rect x="315.3" y="212.8" transform="matrix(0.7071 -0.7071 0.7071 0.7071 -59.4463 288.3552)" class="st24" width="6.2" height="6.2"/>
		
			<rect x="315.3" y="221.6" transform="matrix(0.7071 -0.7071 0.7071 0.7071 -65.6206 290.9152)" class="st24" width="6.2" height="6.2"/>
		
			<rect x="315.3" y="230.4" transform="matrix(0.7071 -0.7071 0.7071 0.7071 -71.8532 293.4886)" class="st24" width="6.2" height="6.2"/>
		
			<rect x="315.3" y="239.1" transform="matrix(0.7071 -0.7071 0.7071 0.7071 -77.988 296.0381)" class="st24" width="6.2" height="6.2"/>
		
			<rect x="315.3" y="247.9" transform="matrix(0.7071 -0.7071 0.7071 0.7071 -84.2077 298.6086)" class="st24" width="6.2" height="6.2"/>
		
			<rect x="299.5" y="218.5" transform="matrix(0.1194 -0.9928 0.9928 0.1194 72.4205 525.7209)" class="st25" width="66.3" height="7"/>
		<path class="st21" d="M336.2,191.8c-0.6-0.1-1.2,0.4-1.2,1c0,0,0,0,0,0l-1.4,11.8c-0.1,0.6,0.4,1.2,1,1.2c0,0,0,0,0,0l0,0
			c0.6,0.1,1.2-0.4,1.2-1c0,0,0,0,0,0l1.4-11.8C337.3,192.4,336.9,191.9,336.2,191.8C336.3,191.8,336.3,191.8,336.2,191.8
			L336.2,191.8z"/>
		<rect x="265.5" y="180.4" class="st22" width="15.5" height="75"/>
		<path class="st26" d="M276.2,191.3c0,1.7-1.3,3-3,3s-3-1.3-3-3s1.3-3,3-3S276.2,189.6,276.2,191.3z"/>
		<rect x="248.5" y="180.4" class="st22" width="15.5" height="75"/>
		<path class="st26" d="M259.3,191.3c0,1.7-1.3,3-3,3c-1.7,0-3-1.3-3-3s1.3-3,3-3C257.9,188.3,259.3,189.6,259.3,191.3z"/>
		<rect x="281" y="184.7" class="st15" width="10.2" height="71.6"/>
		<path class="st27" d="M290.4,210.1c0,0.4-0.3,0.7-0.7,0.7l0,0c-0.4,0-0.7-0.3-0.7-0.7c0,0,0,0,0,0v-20.5c0-0.4,0.3-0.7,0.7-0.7
			c0,0,0,0,0,0l0,0c0.4,0,0.7,0.3,0.7,0.7V210.1z"/>
		<path class="st27" d="M285.6,214.5c0,0.4-0.3,0.7-0.7,0.7l0,0c-0.4,0-0.7-0.3-0.7-0.7v-24.8c0-0.4,0.3-0.7,0.7-0.7c0,0,0,0,0,0
			l0,0c0.4,0,0.7,0.3,0.7,0.7c0,0,0,0,0,0V214.5z"/>
		
			<rect x="296.1" y="197.5" transform="matrix(0.9976 -6.982913e-02 6.982913e-02 0.9976 -15.1452 21.6526)" class="st28" width="12.1" height="59.8"/>
		<path class="st12" d="M307.1,248.3c0.1,1.9-1.3,3.5-3.2,3.7c-1.9,0.1-3.5-1.3-3.7-3.2c-0.1-1.9,1.3-3.5,3.2-3.7c0,0,0,0,0,0
			C305.3,244.9,306.9,246.4,307.1,248.3z"/>
		<path class="st12" d="M304.4,225.5c0.1,1.3-0.9,2.5-2.3,2.6c0,0,0,0,0,0l0,0c-1.4,0.1-2.5-0.9-2.6-2.3l-1.5-21.3
			c-0.1-1.3,0.9-2.5,2.3-2.6c0,0,0,0,0,0l0,0c1.3-0.1,2.5,0.9,2.6,2.3c0,0,0,0,0,0L304.4,225.5z"/>
		
			<rect x="393.8" y="183.7" transform="matrix(1 -2.094389e-03 2.094389e-03 1 -0.4589 0.836)" class="st14" width="10.2" height="71.6"/>
		<path class="st26" d="M402.8,189.2c0,0.3-0.2,0.5-0.5,0.5l0,0h-6.8c-0.3,0-0.5-0.2-0.5-0.5l0,0c0-0.3,0.2-0.5,0.5-0.5c0,0,0,0,0,0
			h6.8C402.6,188.6,402.9,188.9,402.8,189.2C402.9,189.2,402.9,189.2,402.8,189.2L402.8,189.2z"/>
		<path class="st26" d="M399.9,218.6c0,0.5-0.4,0.9-0.9,0.9l0,0c-0.5,0-0.9-0.4-0.9-0.9v-23.5c0-0.5,0.4-0.9,0.9-0.9l0,0
			c0.5,0,0.9,0.4,0.9,0.9V218.6z"/>
		<rect x="383.2" y="183.7" class="st20" width="9.1" height="71.6"/>
		<path class="st14" d="M390.5,215.4c0,0.6-0.4,1-1,1l0,0c-0.6,0-1-0.4-1-1v-19.9c0-0.6,0.4-1,1-1l0,0c0.6,0,1,0.4,1,1V215.4z"/>
		<path class="st14" d="M387.1,215.4c0,0.6-0.4,1-1,1l0,0c-0.6,0-1-0.4-1-1v-19.9c0-0.6,0.4-1,1-1l0,0c0.6,0,1,0.4,1,1V215.4z"/>
		<rect x="340.4" y="184.8" class="st29" width="10.2" height="71.6"/>
		<path class="st26" d="M350.6,189.2c0,0.3-0.2,0.5-0.5,0.5l0,0h-6.8c-0.3,0-0.5-0.2-0.5-0.5l0,0l0,0c0-0.3,0.2-0.5,0.5-0.5
			c0,0,0,0,0,0h6.8C350.4,188.6,350.6,188.9,350.6,189.2C350.6,189.2,350.6,189.2,350.6,189.2L350.6,189.2z"/>
		<path class="st26" d="M347.3,231.9c0,0.3-0.3,0.6-0.6,0.6l0,0c-0.3,0-0.6-0.3-0.6-0.6v-27.6c0-0.3,0.3-0.6,0.6-0.6h0l0,0
			c0.3,0,0.6,0.3,0.6,0.6c0,0,0,0,0,0V231.9z"/>
		<rect x="542.2" y="182.1" class="st22" width="13.2" height="73.3"/>
		<rect x="546.5" y="182.1" class="st30" width="4.5" height="73.2"/>
		<rect x="556.8" y="182.1" class="st18" width="13.2" height="73.3"/>
		<path class="st12" d="M565.3,230.6c0,1-0.8,1.9-1.9,1.9l0,0l0,0c-1,0-1.9-0.8-1.9-1.9l0,0v-34.5c0-1,0.8-1.9,1.9-1.9l0,0
			c1,0,1.9,0.9,1.9,1.9V230.6z"/>
		<path class="st31" d="M591.4,254.3H242.2c-1.7,0-3.1,1.4-3.1,3.1s1.4,3.1,3.1,3.1h349.2c1.7,0,3.1-1.4,3.1-3.1
			S593.1,254.3,591.4,254.3z"/>
		<rect x="247.3" y="302.1" class="st18" width="4.6" height="7.5"/>
		<rect x="402.4" y="294.5" class="st32" width="20.3" height="67.6"/>
		<rect x="412.5" y="294.5" class="st33" width="10.1" height="67.6"/>
		<rect x="402.4" y="305.6" class="st34" width="20.3" height="43.3"/>
		<rect x="412.5" y="305.6" class="st34" width="10.1" height="43.3"/>
		<rect x="402.4" y="346.9" class="st35" width="20.3" height="3.5"/>
		<rect x="412.5" y="346.9" class="st36" width="10.1" height="3.5"/>
		<rect x="402.4" y="302.1" class="st35" width="20.3" height="3.5"/>
		<rect x="412.5" y="302.1" class="st36" width="10.1" height="3.5"/>
		
			<rect x="385" y="317" transform="matrix(1.745302e-03 -1 1 1.745302e-03 105.0816 746.5369)" class="st37" width="82.9" height="7.4"/>
		<rect x="426.4" y="279.2" class="st38" width="3.7" height="82.9"/>
		
			<rect x="409.1" y="318.4" transform="matrix(1.221725e-03 -1 1 1.221725e-03 105.7439 746.325)" class="st35" width="34.8" height="3.7"/>
		
			<rect x="409.9" y="319.2" transform="matrix(2.268878e-03 -1 1 2.268878e-03 106.2157 746.786)" class="st36" width="34.8" height="1.8"/>
		
			<rect x="424.3" y="342" transform="matrix(1.396295e-03 -1 1 1.396295e-03 80.1846 771.6057)" class="st39" width="4.3" height="7.4"/>
		
			<rect x="426.1" y="343.8" transform="matrix(1.919872e-03 -1 1 1.919872e-03 81.8097 773.2311)" class="st40" width="4.3" height="3.7"/>
		
			<rect x="392.4" y="317" transform="matrix(1.745302e-03 -1 1 1.745302e-03 112.4816 753.9499)" class="st37" width="82.9" height="7.4"/>
		<rect x="433.9" y="279.2" class="st38" width="3.7" height="82.9"/>
		
			<rect x="416.5" y="318.4" transform="matrix(1.221725e-03 -1 1 1.221725e-03 113.1239 753.734)" class="st35" width="34.8" height="3.7"/>
		
			<rect x="417.3" y="319.2" transform="matrix(2.268878e-03 -1 1 2.268878e-03 113.5907 754.1978)" class="st36" width="34.8" height="1.8"/>
		
			<rect x="431.7" y="342" transform="matrix(1.396295e-03 -1 1 1.396295e-03 87.5746 779.0259)" class="st41" width="4.3" height="7.4"/>
		
			<rect x="433.5" y="343.8" transform="matrix(1.919872e-03 -1 1 1.919872e-03 89.2046 780.6403)" class="st42" width="4.3" height="3.7"/>
		<rect x="459" y="276.5" class="st43" width="21" height="85.8"/>
		<rect x="469.5" y="276.5" class="st43" width="10.5" height="85.8"/>
		<rect x="459" y="310.5" class="st37" width="21" height="26.5"/>
		<rect x="469.5" y="310.5" class="st38" width="10.5" height="26.5"/>
		<rect x="459" y="343" class="st35" width="21" height="4.5"/>
		<polygon class="st37" points="449.7,362.3 442.1,361.5 451.4,276.2 459,276.9 		"/>
		<polygon class="st38" points="449.7,362.3 445.9,361.9 455.2,276.6 459,276.9 		"/>
		<polygon class="st35" points="450.6,336.9 446.8,336.5 450.7,300.7 454.5,301 		"/>
		<polygon class="st36" points="450.6,336.9 448.7,336.8 452.6,300.9 454.5,301 		"/>
		<polygon class="st32" points="451.8,343.1 444.2,342.4 443.7,346.8 451.3,347.6 		"/>
		<polygon class="st33" points="451.8,343.1 448,342.8 447.5,347.2 451.3,347.6 		"/>
		<rect x="481.7" y="285.4" class="st25" width="15.7" height="76.9"/>
		<rect x="489.6" y="285.4" class="st44" width="7.9" height="76.9"/>
		<rect x="481.7" y="345" class="st45" width="15.7" height="4"/>
		<rect x="489.6" y="345" class="st46" width="7.9" height="4"/>
		<rect x="481.7" y="298.6" class="st45" width="15.7" height="4"/>
		<rect x="489.6" y="298.6" class="st46" width="7.9" height="4"/>
		<rect x="481.7" y="318" class="st45" width="15.7" height="11.6"/>
		<rect x="489.6" y="318" class="st46" width="7.9" height="11.6"/>
		<rect x="360.3" y="287" class="st39" width="21" height="74.7"/>
		<rect x="370.8" y="287" class="st47" width="10.5" height="74.7"/>
		<rect x="360.3" y="316.6" class="st37" width="21" height="23.1"/>
		<rect x="370.8" y="316.6" class="st38" width="10.5" height="23.1"/>
		<rect x="360.3" y="344.9" class="st35" width="21" height="3.9"/>
		<rect x="383" y="294.7" class="st25" width="15.7" height="67"/>
		<rect x="390.8" y="294.7" class="st44" width="7.9" height="67"/>
		<rect x="383" y="346.6" class="st45" width="15.7" height="3.5"/>
		<rect x="390.8" y="346.6" class="st46" width="7.9" height="3.5"/>
		<rect x="383" y="306.3" class="st45" width="15.7" height="3.5"/>
		<rect x="390.8" y="306.3" class="st46" width="7.9" height="3.5"/>
		<rect x="383" y="323.2" class="st45" width="15.7" height="10.1"/>
		<rect x="390.8" y="323.2" class="st46" width="7.9" height="10.1"/>
		<rect x="245" y="298.6" class="st18" width="9.5" height="63.3"/>
		<polygon class="st22" points="264,285.4 254.5,285.4 254.5,361.9 264,361.9 273.5,361.9 273.5,285.4 		"/>
		<rect x="273.5" y="279.6" class="st12" width="9.5" height="82.3"/>
		<rect x="282.9" y="285.4" class="st17" width="11.4" height="76.5"/>
		<rect x="294.3" y="291.4" class="st22" width="9.5" height="70.6"/>
		<rect x="245" y="298.6" class="st19" width="9.5" height="17.3"/>
		<rect x="254.5" y="307.2" class="st48" width="19" height="29.6"/>
		<rect x="276.6" y="291.4" class="st22" width="2.5" height="45.5"/>
		<rect x="339.1" y="281.1" class="st32" width="17" height="80.7"/>
		<rect x="339.1" y="281.1" class="st33" width="8.5" height="80.7"/>
		<rect x="339.1" y="313.1" class="st45" width="17" height="24.9"/>
		<rect x="339.1" y="313.1" class="st46" width="8.5" height="24.9"/>
		<rect x="325" y="289.5" class="st44" width="12.8" height="72.3"/>
		<rect x="325" y="289.5" class="st25" width="6.4" height="72.3"/>
		<polygon class="st45" points="307.7,360.5 319.6,361.9 325,303.2 313.1,301.9 		"/>
		<polygon class="st46" points="307.7,360.5 313.6,361.2 319,302.6 313.1,301.9 		"/>
		<polygon class="st35" points="308.9,347.4 320.8,348.7 320.5,351.8 308.6,350.4 		"/>
		<polygon class="st36" points="308.9,347.4 314.8,348 314.6,351.1 308.6,350.4 		"/>
		<polygon class="st35" points="308.6,351.1 320.4,352.5 320.3,353.8 308.5,352.4 		"/>
		<polygon class="st36" points="308.6,351.1 314.5,351.8 314.4,353.1 308.5,352.4 		"/>
		<polygon class="st35" points="312.2,312 324,313.3 323.8,316.4 311.9,315 		"/>
		<polygon class="st36" points="312.2,312 318.1,312.6 317.8,315.7 311.9,315 		"/>
		<rect x="514.8" y="295.8" class="st49" width="24" height="66"/>
		<rect x="526.8" y="295.8" class="st48" width="12" height="66"/>
		
			<rect x="502.7" y="316.9" transform="matrix(1.570732e-03 -1 1 1.570732e-03 221.0994 864.0349)" class="st35" width="81" height="8.7"/>
		
			<rect x="504.9" y="319.1" transform="matrix(1.396295e-03 -1 1 1.396295e-03 223.3634 866.297)" class="st36" width="81" height="4.4"/>
		
			<rect x="522.3" y="309.7" transform="matrix(2.268878e-03 -1 1 2.268878e-03 230.2292 854.4738)" class="st37" width="42" height="4.4"/>
		
			<rect x="523.3" y="310.7" transform="matrix(1.221725e-03 -1 1 1.221725e-03 231.8742 855.7392)" class="st38" width="42" height="2.2"/>
		
			<rect x="511.5" y="316.9" transform="matrix(1.570732e-03 -1 1 1.570732e-03 229.8644 872.8036)" class="st35" width="81" height="8.7"/>
		
			<rect x="513.7" y="319.1" transform="matrix(1.396295e-03 -1 1 1.396295e-03 232.1235 875.0891)" class="st36" width="81" height="4.4"/>
		<rect x="548.3" y="289.4" class="st37" width="4.4" height="42"/>
		<polygon class="st38" points="554.2,332.9 552,332.9 552.1,290.8 554.3,290.8 		"/>
		<polygon class="st45" points="514.8,360.7 498.2,362.4 490.5,289.7 507.2,288 		"/>
		<polygon class="st46" points="514.8,360.7 506.5,361.5 498.9,288.9 507.2,288 		"/>
		<polygon class="st35" points="513.1,344.4 496.5,346.1 496.8,349.8 513.5,348.2 		"/>
		<polygon class="st36" points="513.1,344.4 504.8,345.2 505.2,349 513.5,348.2 		"/>
		<polygon class="st35" points="513.6,349.1 496.9,350.7 497.1,352.3 513.8,350.6 		"/>
		<polygon class="st36" points="513.6,349.1 505.3,349.9 505.4,351.5 513.8,350.6 		"/>
		<polygon class="st35" points="508.5,300.5 491.9,302.2 492.3,306 508.9,304.3 		"/>
		<polygon class="st36" points="508.5,300.5 500.2,301.4 500.6,305.2 508.9,304.3 		"/>
		<polygon class="st37" points="573.2,358.9 578.9,357.4 561.5,292.1 555.8,293.6 		"/>
		<polygon class="st38" points="573.2,358.9 576.1,358.1 558.6,292.9 555.8,293.6 		"/>
		<polygon class="st35" points="569.5,339.3 572.4,338.5 565,311.1 562.2,311.8 		"/>
		<polygon class="st36" points="569.5,339.3 570.9,338.9 563.6,311.4 562.2,311.8 		"/>
		<path class="st31" d="M591.4,361.9H242.2c-1.7,0-3.1,1.4-3.1,3.1s1.4,3.1,3.1,3.1h349.2c1.7,0,3.1-1.4,3.1-3.1
			S593.1,361.9,591.4,361.9z"/>
		<polygon class="st12" points="293.9,475.7 487,475.7 457.7,438.6 321.7,438.6 		"/>
		<g class="st50">
			<path class="st51" d="M371.7,455c4.8-2.8,18.3-6.5,27-6.5l0,0c0.4,0,0.6,0.1,0.4,0.2l0,0c-0.3,0.1-0.6,0.2-0.9,0.2l0,0
				c-7.4,0-20.6,3.5-25.1,6.2l0,0c-2.4,1.5-2.2,2.5,3,2.5l0,0c11.8,0,29.8-4.8,32.7-7l0,0c0.8-0.7,0.5-1-1.3-1.1l0,0
				c-0.3,0-0.5-0.1-0.3-0.2l0,0c0.3-0.1,0.7-0.2,1-0.2l0,0c2.5,0.1,3,0.7,2,1.5l0,0c-3.3,2.5-21.6,7.4-34.8,7.4l0,0
				C369.4,457.9,369.1,456.6,371.7,455L371.7,455z"/>
			<path class="st51" d="M403.3,450.9l1.4-2.4c0.1-0.1,0.2-0.1,0.4-0.2l0,0c0.2-0.1,0.4-0.1,0.6-0.1l0,0l6.3,0.2
				c0.3,0,0.4,0.1,0.3,0.2l0,0c-0.3,0.1-0.7,0.2-1,0.2l0,0l-5.4-0.2l-1.2,2.2l0,0c-0.3,0.2-0.6,0.2-0.8,0.2h-0.2
				C403.4,451,403.2,451,403.3,450.9L403.3,450.9z"/>
			<path class="st51" d="M373.7,450.6c-0.3-0.1-0.2-0.2,0.1-0.4l0,0c0.3-0.2,0.7-0.3,1-0.5l0,0c0.4-0.2,0.7-0.4,0.7-0.7l0,0
				c0.1-0.5,0.4-0.8,0.8-1l0,0c1.3-0.6,2.7-0.9,4.1-0.8l0,0h0.5l0,0c2.5,0,3.3,0.4,2.5,0.8l0,0c-0.9,0.4-1.9,0.8-2.8,1.1l0,0
				c-0.4,0.1-0.8,0.3-1.2,0.5l0,0c-0.5,0.2-0.1,0.2-0.5,0.5l0,0c-0.1,0.1-0.2,0.1-0.3,0.2l0,0c-1.2,0.3-2.4,0.5-3.6,0.5l0,0
				C374.6,450.7,374.1,450.7,373.7,450.6L373.7,450.6z M377.7,448c-0.4,0.2-0.6,0.5-0.7,0.9l0,0c0,0.3-0.4,0.6-0.9,0.9l0,0
				c-0.4,0.2-0.8,0.4-1,0.5l0,0c-0.1,0.1-0.1,0.1-0.1,0.1l0,0c0.2,0,0.5,0,0.7,0l0,0c0.6,0,1.2-0.1,1.8-0.2l0,0c0,0,0.1,0,0.1,0l0,0
				c0.1,0-0.1-0.2,0.5-0.5l0,0c0.4-0.2,0.9-0.4,1.4-0.6l0,0c0.9-0.3,1.8-0.6,2.7-1l0,0c0.3-0.2,0.4-0.3-2-0.4l0,0l0.4-0.2l-0.4,0.2
				h-0.3C379.2,447.5,378.4,447.6,377.7,448L377.7,448z"/>
			<path class="st51" d="M374.7,447.5l-1.2-0.4c-0.2-0.1,0-0.2,0.3-0.2l0,0c0.3-0.1,0.7-0.1,1,0l0,0l1.2,0.4c0.2,0.1,0,0.2-0.3,0.3
				l0,0c-0.2,0.1-0.5,0.1-0.7,0.1l0,0C374.9,447.6,374.8,447.6,374.7,447.5L374.7,447.5z"/>
			<path class="st51" d="M369.3,448.5c0.3-0.1,0.6-0.2,1-0.2l0,0l3.8-0.1c0.4,0,0.6,0,0.4,0.2l0,0c-0.3,0.1-0.6,0.2-0.9,0.2l0,0
				l-4,0.1h-0.1C369.2,448.7,369.1,448.6,369.3,448.5L369.3,448.5z"/>
			<path class="st51" d="M385.2,447.5c-0.1-0.1,0.1-0.2,0.5-0.3l0,0l2.6-0.4c0.3-0.1,0.6-0.1,0.8,0l0,0c0.1,0.1-0.2,0.2-0.5,0.2l0,0
				l-2.6,0.4c-0.1,0-0.3,0-0.4,0l0,0C385.5,447.5,385.4,447.5,385.2,447.5L385.2,447.5z"/>
			<path class="st51" d="M387.2,448.6l-3.5-0.1c-0.3,0-0.4-0.1-0.2-0.2l0,0c0.3-0.1,0.7-0.2,1-0.1l0,0l3.5,0.1
				c0.3,0,0.4,0.1,0.2,0.2l0,0C387.9,448.6,387.6,448.6,387.2,448.6L387.2,448.6L387.2,448.6z"/>
			<path class="st51" d="M378.7,446.9l0.6-0.5c0.3-0.1,0.6-0.2,0.9-0.2l0,0c0.4,0,0.6,0,0.5,0.1l0,0l-0.6,0.5
				c-0.3,0.1-0.6,0.2-0.9,0.2h-0.1C378.8,447,378.6,447,378.7,446.9L378.7,446.9z"/>
			<path class="st51" d="M382.9,447c-0.3,0-0.3-0.1,0-0.2l0,0l1.8-0.6c0.3-0.1,0.7-0.1,1-0.1l0,0c0.3,0,0.3,0.1,0,0.2l0,0l-1.8,0.6
				c-0.3,0.1-0.5,0.1-0.8,0.1l0,0L382.9,447L382.9,447z"/>
		</g>
		<g class="st52">
			<path class="st53" d="M333.4,450.6c-0.4-0.2-0.2-0.3,0.3-0.5l0,0l13.4-3.5c0.3-0.1,0.7-0.2,1-0.2l0,0c0.3,0,0.5,0,0.8,0.1l0,0
				l1.9,0.8l13-3.4c0.5-0.1,1-0.2,1.6-0.1l0,0c0.4,0.1,0.3,0.3-0.1,0.4l0,0l-14.1,3.8c-0.3,0.1-0.7,0.1-1,0.1l0,0
				c-0.3,0-0.5,0-0.8-0.1l0,0l-2-0.8l-12.2,3.2l0,0c-0.4,0.1-0.7,0.1-1.1,0.1l0,0C333.8,450.6,333.6,450.6,333.4,450.6L333.4,450.6z
				"/>
			<path class="st53" d="M363.6,445.7l1.2-1.7l-6.6,0.4l0,0c-0.6,0-1.1-0.1-1.1-0.2l0,0c0-0.2,0.5-0.3,1.1-0.4l0,0l8-0.5
				c0.3,0,0.6,0,0.8,0.1l0,0c0.2,0,0.3,0.2,0.3,0.2l0,0l-1.5,2c-0.1,0.2-0.7,0.3-1.4,0.3h-0.1C363.8,446,363.4,445.9,363.6,445.7
				L363.6,445.7z"/>
		</g>
		<path class="st54" d="M436.7,447.9l-3.6,0.3l-0.2-0.2h-0.5l-2.9-3.5l3.2-0.2L436.7,447.9L436.7,447.9z M435.9,447.7l-3.5-3.3
			l-2.4,0.2l3.1,3.2L435.9,447.7L435.9,447.7z"/>
		<path class="st54" d="M431.4,447.9l-3.7,0.2l-0.2-0.2h-0.5l-3.1-4.6l3.2-0.2L431.4,447.9L431.4,447.9z M430.7,447.7l-3.8-4.3
			l-2.3,0.2l3.4,4.2L430.7,447.7L430.7,447.7z"/>
		<path class="st54" d="M425.7,448l-3.6,0.2L422,448h-0.5l-2.8-5.7l3.1-0.2L425.7,448L425.7,448z M425.1,447.7l-3.8-5.4l-2.3,0.2
			l3.2,5.3L425.1,447.7L425.1,447.7z"/>
		<path class="st54" d="M420,448l-3.7,0.2l-0.1-0.2h-0.5l-2.3-6.6l3-0.2L420,448L420,448z M419.4,447.8l-3.3-6.4l-2.2,0.1l2.7,6.3
			L419.4,447.8z"/>
		<path class="st54" d="M453.5,451.8c0,0,0.3,0,0.3-0.2l0,0c0.2,0,0.5-0.1,0.9-0.1l0,0c1-0.1,1.7-0.1,2.2-0.1l0,0
			c1.1,0,1.8,0.2,4.9,0.4l0,0l-0.1-0.5c-2.9-0.2-3.5-0.4-5.1-0.4l0,0c-0.8,0-1.6,0.1-2.4,0.2l0,0c-1,0.2-1.5,0.1-1.6,0.3l0,0h-1.8
			l0,0c-4.6,0.1-9.3,0-9.3,0l0,0l-2.2-0.1l-23.7,0.3l0.4,0.5l23.6-0.2l2.1,0.1c0,0,4.8,0.1,9.4,0l0,0
			C452.8,451.9,453.1,451.9,453.5,451.8L453.5,451.8z"/>
		<path class="st54" d="M462.7,453.1l0.3,0.5l-4.8-0.1h-2.3l-4-0.4l-1.1,0.1l0,0c-0.1,0-1.3,0-4,0.1l0,0l-15.2,0.2l0,0
			c-11.6,0.1-14.6,0.1-14.6,0.1l-0.3-0.5l0,0c0,0,2.9,0,14.6-0.1l0,0c4-0.1,8.9-0.1,15.2-0.2l0,0l3.8-0.1l1.1-0.2h0.1l4.1,0.4
			l2.2-0.1L462.7,453.1L462.7,453.1z"/>
		<path class="st54" d="M435.8,455.1l-6.6,0.4H418l-0.3-0.5h11.1l6.2-0.4l0,0c1.7-0.5,3.4-0.8,5.2-0.8l0,0c0.3,0,0.6-0.1,0.9,0l0,0
			c0.8-0.1,1.6,0.1,2.4,0.5l0,0c0.4,0.2,0.3,0.2,0.4,0.2l0,0l0,0l0,0c0.1,0,0.3,0,0.5-0.1l0,0c0.5-0.1,1.1-0.2,1.6-0.1l0,0
			c1.5,0,3.1,0.2,4.6,0.5l1.4-0.1h5h1h2.3h3l0.3,0.5l0,0h-3l0,0h-2.4h-1l-5,0.1h-1.7c-1.4-0.2-2.9-0.4-4.3-0.4l0,0
			c-0.4,0-0.8,0-1.2,0.1l0,0c-0.3,0-0.6,0.1-0.9,0.1l0,0c-0.6,0-1.2-0.1-1.7-0.5l0,0c-0.3-0.1-0.2-0.2-1.2-0.2l0,0
			c-0.2,0-0.5,0-0.8,0l0,0c-1.7,0.1-3.4,0.4-5,0.8L435.8,455.1z M463.8,455L463.8,455z"/>
		<path class="st54" d="M455.3,457c0.1-0.1,0-0.2,1.1-0.2h0.6c2.5,0.1,3.4,0.2,4.7,0.2l0,0c1.1,0,2.3-0.1,3.4-0.3l0,0l-0.7-0.5
			c-1,0.2-2,0.3-3,0.3l0,0c-0.9,0-2-0.1-4.6-0.2h-0.7c-1.3,0-1.8,0.2-1.9,0.5l0,0c-0.2,0.2,0.1,0.1-0.5,0.2l0,0
			c-1.3,0-2.5-0.2-3.8-0.3l0,0c-0.8-0.1-1.7-0.1-2.5-0.1l0,0c-1.3,0-2.6,0.2-3.8,0.5l0,0c-0.1,0-0.8,0.1-1.9,0.1l0,0
			c-1.9,0-3.8-0.1-5.7-0.4l0,0c-2.1-0.3-4.2-0.5-6.2-0.5l0,0c-1,0-1.7,0.1-1.7,0.1l0,0c-1.5,0.1-2.9,0.4-4.4,0.7l0,0l-5,0.1l0.3,0.5
			l5.2-0.1c0,0,2.4-0.5,4.4-0.6l0,0c0,0,0.6,0,1.5,0l0,0c1.9,0,3.9,0.1,5.8,0.4l0,0c2,0.3,4.1,0.4,6.1,0.4l0,0c0.7,0,1.5,0,2.2-0.1
			l0,0c0,0,0.4-0.1,1-0.2l0,0c0.8-0.1,1.7-0.2,2.5-0.2l0,0c0.7,0,1.4,0,2.1,0.1l0,0c1.4,0.2,2.7,0.3,4.1,0.3h0.1
			C455,457.5,455.3,457.2,455.3,457L455.3,457z"/>
		<path class="st54" d="M445.6,462.2c0,0,0.2,0,0.2-0.1l0,0c0.2,0,0.4-0.1,0.8-0.1l0,0c0.9-0.1,1.4-0.1,1.9-0.1l0,0
			c1,0,1.5,0.1,4.2,0.3l0,0l-0.1-0.4c-2.5-0.1-3-0.3-4.4-0.3l0,0c-0.5,0-1.2,0-2.1,0.1l0,0c-0.8,0.1-1.3,0-1.4,0.2l0,0h-1.5l0,0
			c-4,0-8.1,0-8.1,0l0,0l-1.9-0.1l-20.6,0.2l0.3,0.4l20.5-0.2l1.9,0.1c0,0,4.1,0.1,8.2,0l0,0C445,462.2,445.3,462.2,445.6,462.2
			L445.6,462.2z"/>
		<path class="st54" d="M453.6,463l0.2,0.4l-4.2-0.1h-2l-3.4-0.3l-1,0.1l0,0c-0.1,0-1.1,0-3.4,0.1l0,0l-13.2,0.1l0,0
			c-10.1,0.1-12.6,0.1-12.6,0.1l-0.3-0.4l0,0c0,0,2.5,0,12.6-0.1l0,0c3.4,0,7.8-0.1,13.2-0.1l0,0c2.3,0,3.3-0.1,3.3-0.1l1-0.1h0.1
			l3.6,0.3h1.9L453.6,463L453.6,463z"/>
		<path class="st54" d="M430.3,464.4l-5.7,0.3h-9.7l-0.3-0.3h9.7l5.4-0.3l0,0c1.5-0.3,3-0.5,4.5-0.6l0,0c0.3,0,0.5,0,0.8,0l0,0
			c0.7-0.1,1.4,0.1,2.1,0.3l0,0c0.3,0.2,0.3,0.2,0.3,0.2l0,0l0,0l0,0c0.1,0,0.2,0,0.5,0l0,0c0.5-0.1,0.9-0.1,1.4-0.1l0,0
			c1.3,0,2.7,0.1,4,0.3h1.2h4.3h0.9h2h2.6l0.3,0.4l0,0h-2.6l0,0c0,0-1.2,0-2,0h-0.8h-4.3h-1.5c-1.2-0.2-2.5-0.3-3.8-0.3l0,0
			c-0.4,0-0.7,0-1.1,0.1l0,0l-0.8,0.1l0,0c-0.5,0-1-0.1-1.4-0.3l0,0c-0.3-0.1-0.7-0.2-1-0.1l0,0h-0.7l0,0
			C433.2,464,431.7,464.2,430.3,464.4L430.3,464.4z M454.6,464.4L454.6,464.4z"/>
		<path class="st54" d="M447.2,465.8c0.1-0.1,0-0.1,1-0.1h0.5c2.2,0,3,0.1,4,0.1l0,0c1,0,2-0.1,2.9-0.2l0,0l-0.5-0.4
			c-0.9,0.1-1.8,0.2-2.6,0.2l0,0c-0.8,0-1.7-0.1-4-0.1h-0.6c-1.1,0-1.6,0.2-1.7,0.3l0,0c-0.2,0.1,0,0.1-0.5,0.1l0,0
			c-0.5,0-1.4-0.1-3.3-0.2l0,0c-0.8-0.1-1.5-0.1-2.2-0.1l0,0c-1.1,0-2.2,0.1-3.3,0.3l0,0c-0.1,0-0.7,0-1.6,0l0,0
			c-1.6,0-3.3-0.1-4.9-0.3l0,0c-1.8-0.2-3.6-0.3-5.3-0.3l0,0c-0.9,0-1.4,0-1.5,0l0,0c-1.8,0.1-3.8,0.4-3.8,0.5l0,0h-4.3l0.3,0.4h4.5
			c0,0,2.1-0.3,3.8-0.5l0,0c0,0,0.5,0,1.3,0l0,0c1.7,0,3.3,0.1,5,0.3l0,0c1.8,0.2,3.5,0.3,5.3,0.3l0,0c1.1,0,1.8,0,1.9-0.1l0,0
			c0,0,0.3-0.1,0.9-0.2l0,0c0.7-0.1,1.5-0.1,2.2-0.2l0,0c0.6,0,1.2,0,1.8,0.1l0,0c1.8,0.2,2.9,0.2,3.6,0.2h0.1
			C447,466.1,447.3,465.9,447.2,465.8L447.2,465.8z"/>
		<polygon class="st55" points="362.4,454.5 329.2,454.1 329.6,453.2 362.6,453.6 		"/>
		<polygon class="st55" points="362,455.8 328.6,455.5 329,454.6 362.2,454.9 		"/>
		<polygon class="st55" points="361.5,457.2 327.9,456.9 328.3,456 361.8,456.3 		"/>
		<polygon class="st55" points="361.2,458.6 327.3,458.3 327.7,457.4 361.4,457.7 		"/>
		<polygon class="st55" points="360.7,460 326.6,459.8 327,458.8 361,459.1 		"/>
		<polygon class="st55" points="360.3,461.5 325.9,461.3 326.3,460.3 360.6,460.6 		"/>
		<polygon class="st54" points="356,484.9 316.7,484.9 330.1,464.8 360.7,464.8 		"/>
		<polygon class="st12" points="353.6,469.4 333,469.4 333.7,468.1 354.1,468.1 		"/>
		<polygon class="st12" points="352.4,473.5 330.6,473.5 331.4,472.2 352.8,472.2 		"/>
		<polygon class="st12" points="351.7,475.6 329.3,475.6 330.1,474.3 352.1,474.3 		"/>
		<polygon class="st12" points="351,477.9 328,477.9 328.8,476.5 351.4,476.5 		"/>
		<path class="st56" d="M293.8,311.2c1.3-3.5,3.9-6.6,8.5-7s21.9-0.7,25.2,7.5c3.3,8.2,1.8,18.6-9.1,18.2
			C307.5,329.4,293.8,311.2,293.8,311.2z"/>
		<path class="st57" d="M328.7,313.5c-3,3.2-5,7.2-6,11.5c-0.2,0.9,3.3,4.5,3.2,5.5c-0.4,5.2-25.1,28-27.6,26.5
			c-2.5-1.5-0.3-44-0.3-44s9.5-13.8,12-20.3C311.5,288.5,328.7,313.5,328.7,313.5z"/>
		
			<linearGradient id="SVGID_4_" gradientUnits="userSpaceOnUse" x1="493.9046" y1="-80.4005" x2="511.0546" y2="-35.2506" gradientTransform="matrix(0.9476 0.3195 0.3195 -0.9476 -139.3723 87.7631)">
			<stop  offset="0" style="stop-color:#FFFFFF"/>
			<stop  offset="0.52" style="stop-color:#C6C0B9"/>
		</linearGradient>
		<path class="st58" d="M318.8,300.9L318.8,300.9L318.8,300.9L318.8,300.9L318.8,300.9l8.1,5.3c-0.4,0.7-1.6,11.1-2.9,14.1
			c-3.9,1.9-31.1,20.2-35.2,17.8c-3.3-2,7.9-18.9,7.1-22.4c2.4-3.2,13.5-18.9,15.1-28.1L318.8,300.9z"/>
		<path class="st12" d="M327.6,312.5c-3,13.2-13.8,32.8-17.4,31.1c-2.8-2.8-13.9-32.5-14.3-35.7c-1.4,0.8-25.6,7-25.6,7l-0.1,102.8
			l57.5,18.4l18-108.6L327.6,312.5z"/>
		<path class="st56" d="M299.6,304.5c-1.3,2.4,1.4,14.9,5.3,23.9c0,0-2.9-2.4-4.5-0.5s-8.7,9.1-8.7,9.1s-2.9-28.5-1.6-28.7
			C294,307.7,299.6,304.5,299.6,304.5z"/>
		<path class="st56" d="M330.3,338.8c-1.5-7.1-6.9-10.5-8.3-9.5c-1.4,1,6.3-16.7,4.2-18.3c2.2,1.9,3.9,4.2,5,6.9L330.3,338.8z"/>
		<path class="st56" d="M325.3,325.6c-0.8,2.4-1.3,4.8-1.6,7.3c0,0-10,12.3-12.4,21.5s0.7-13.6,0.7-13.6s8.5-9.9,9.8-12.6
			c1.3-2.7,2.4-5.3,2.4-5.3L325.3,325.6z"/>
		<path class="st56" d="M300.3,319.4c-0.5-0.5,3.3,5.1,6.2,11.8c1.8,4,5.1,9.2,5.4,10.5s-1.4,13.4-1.4,13.4s0.5-8-1.9-12.8
			c-2.4-4.8-9.3-18.7-10.9-18.2s-0.1-6.5-1.6-7.4S300.3,319.4,300.3,319.4z"/>
		<path class="st59" d="M310.3,275.6c-4.7,5.7-3.7,16.5-7,16.5c-0.7,0,0.2,5.5-0.3,4.9c-0.5-0.6,0.8,4.7,4,1.8
			c1.3-1.2,12-13.5,12-14.7S310.3,275.6,310.3,275.6z"/>
		<path class="st57" d="M340.8,304.6c4.1-3.6,6.7-7.8,8-15.9c0.7-5.2,2.7-8.8-0.1-11.2c-1.4-0.9-2.8-1.6-4.3-2.2
			c-1.6-1.4-3.4-2.7-5.3-3.8c-13.4-7.9-16.6,2.1-21.8,11.2c-2-3.7-5-1.3-6.8,2.5c-1.4,2.9-1.8,6.9-0.5,8.9c-3.4,8.5-2.7,18.4,6.1,25
			c1.5,1.1,3.3,1.7,5.2,1.7c2.1,0.1,5.3-1.6,7.4-3C340.6,311.2,340.5,304.9,340.8,304.6z"/>
		<path class="st59" d="M326.1,262.5c-3.6-1.1-7.5,2-11.2,5.7c-3.2,3.4-5.5,7.5-6.7,12l5.1,2.3l0.1,4.2l1.2,2c0,0,5.6-6.5,7.8-7.6
			c1.6-0.8,6.2-3.8,8.3,1.1c0,0,4.4-16.7,1.2-18.3C330.1,263,328.1,262.5,326.1,262.5z"/>
		<path class="st59" d="M328.7,275.5l-0.4,3.7c0,0,19.7,21.2,20.6,20c4.2-6.8,4.9-15.2,1.8-22.6c-4.9-12-20.3-15.3-21.8-8.2
			L328.7,275.5z"/>
		<path class="st59" d="M329,273.6c2.9-3.2,15.5-0.1,20.6,6.4c-3.9-4.7-13.2-9.8-16.9-8.7S329,273.6,329,273.6z"/>
		<path class="st60" d="M273.4,426c-5.8,5.6-21.2,0.7-28.2,1s-13.9,4.9-12,11.8c0,0-2.4,13.6,10.9,13.1c10.6-0.4,25.1-6.8,38.7-7.4
			C291.9,444,273.4,426,273.4,426z"/>
		<path class="st59" d="M251.8,427.2c-8.1-0.7-19.2,0.7-20.4,9s2.9,11.8,5.6,14c1.6,1.2,3.6,1.7,5.5,1.5c0,0-8.8-6.3-6.2-16.7
			C238.4,426.7,251.8,427.2,251.8,427.2z"/>
		<path class="st61" d="M380.5,380.6c7.9,8.5,5.4,21.1-4.2,31.7s-74.5,38.5-90.9,38.9c-5.6-11.8-5.6-18.4-11.3-27.2
			c2.1-3.7,9.1-11.8,15.3-4.9c2.7,3-2.5-3.2,1.5-5.4c3.9-2.2,4.8,2.6,15.7,0.4c4.4-0.9,49.7-24.3,54.2-31.4
			C366.7,373.2,380.5,380.6,380.5,380.6z"/>
		<path class="st60" d="M322.6,428.4c6.3,4.8,20.8-1.9,27.6-2.4s14.2,3.2,13.1,10.1c0,0,3.9,13-9.2,14.1
			c-10.5,0.9-25.3-3.7-38.6-2.6C306.6,448.2,322.6,428.4,322.6,428.4z"/>
		<path class="st59" d="M343.9,427c7.9-1.6,18.9-1.6,21,6.4s-1.4,11.8-3.9,14.4c-1.4,1.3-3.3,2.1-5.2,2.1c0,0,7.8-7.2,4.2-17
			C356.9,424.9,343.9,427,343.9,427z"/>
		<path class="st62" d="M225.1,385.2c-7.9,8.5-8.5,22,3.2,30.9c11.4,8.7,75.8,38.4,97.2,37.3c5.6-11.9,2-16.4,7.7-25.2
			c-2.1-3.7-5.8-3-11.6-2.7c-4,0.2-0.6-2.4-4.5-4.6s-1.2-1.8-12.2-4c-4.4-0.9-40-22.4-45.7-28.4
			C241.8,369.9,225.1,385.2,225.1,385.2z"/>
		<path class="st57" d="M266.8,378.1l-16.5,4.7c0.1,7.6,19.2,27.3,29.8,34.8c0.6,1.6,1.3,3.6,2.1,5.3c1,2.2,3.3,7.2,6.4,8.6
			c2.1,3.3,3.3,6.7,4.3,6.7c0.8,0-0.8-5.3-1.7-8.3c0.2,0.1,0.4,0.1,0.6,0.2c1.8,3.2,3.3,9.7,4.1,9.8c1.8,0.1,0.8-7.9-0.5-11.3
			c0.2,0-0.1,0,0.1,0.1c2.1,4.4,2.6,12.9,4.7,11.5c1-0.7-1.2-11-1.5-14.1l4,3.4c2.2,2.2,4.3,5.5,5.1,5.3c2-0.6-1.1-5.3-3-7.9
			c-0.9-1.2-2.4-3.2-3.6-5c-3.1-3.9-6.7-7.3-10.9-10c-3.8-7.9-19.1-28.8-20.2-30.5L266.8,378.1z"/>
		<path class="st12" d="M271.1,314.9c-6.9-0.4-13.7,6.7-14.5,12.3c-0.8,5.6-6.9,48.3-6.9,57.9s19.3,23.1,20.9,25.5
			c4.3-5.1,9.8-9,16-11.4c3.7-1.5-14.4-14.1-12.8-21.4c2-9.4,3.1-18.9,3.3-28.5C277,339.7,271.1,314.9,271.1,314.9z"/>
		<path class="st12" d="M277,355.7c0.3,4.6,0,10.2,0,13.4s-2.4,4-1.6,6.4c0.8,2.4,5.5,13.4,7.9,13.4s8.2,12.9,8.2,12.9
			s-9.6-3.5-17.8,5.6c-1.9,2.2-7-11.8-7-11.8l11.1-6.4c0,0-2.6-9.1-8.1-9.1c-4.4,0.1-8.7,0.6-13,1.3c0,0,11.8-8.5,14.2-6.1
			c0,0-9.5-0.6-12.7,1c7.1-5,9.9-6.8,12.5-5c-2.4-2.6-1.8-5.8-1.8-6.6s4.6-5.2,5.2-9.8c0.6-4.6,2.6-10.2,1.6-17.7
			C275.2,333.9,277,355.7,277,355.7z"/>
		<path class="st63" d="M352,338.8c-9.3,7.4-7.4,18.8-7.4,18.8s10.3,13.7,13.7,18.4c-1.9,2.6-14.3,15.8-14.3,15.8
			c-5.9,0.4-6.1,1.4-9.5,3.1c-2.8,1.4-8.7,5-8.7,5s-0.5,2.3,3.3,1.4c2.3-0.5,5.6-1.8,6.3-2c-0.5,0.3-6.8,5.1-7.6,6.6
			s1.3,2.2,1.3,2.2c-0.8,3.6,0.7,2.3,0.7,2.3c-0.6,3,2,2.3,2,2.3c-0.3,0.7-0.1,1.4,1.7,1.8c1.8,0.4,6.5-1.7,9.3-3
			c2.1-0.7,6.6-7.3,8.4-8.4c9.3-5.6,19-16,24.8-25.4C369.1,361.9,358.3,340.3,352,338.8z"/>
		<path class="st12" d="M345.6,327.5c5.3,0.5,10.6,7.5,13.2,12.9s14.8,25.8,16.4,28.4s1.8,8.4,1.8,8.4s-11.8-7.6-21.3,1.5
			c-2.6-2.1-2.1-4.6-2.1-4.6s0-4.3-5.8-8.6s-6.9-0.5-9-5.9S345.6,327.5,345.6,327.5z"/>
		<polygon class="st64" points="463.5,494.3 424.2,494.3 412.9,470.1 443.5,470.1 		"/>
		<g>
			<path class="st65" d="M423.5,475c-0.1,0-0.3,0-0.3-0.2l0,0c0-0.1,0-0.1,0-0.1l0,0h-0.1l0,0c-0.3-0.1-0.6-0.2-0.8-0.3l0,0
				c-0.4-0.1-0.9-0.2-1.3-0.2l0,0c-0.6,0-0.6,0.4-1.9,0.9l0,0l-0.1-0.3c1.2-0.4,1.2-0.9,2-0.9l0,0c0.5,0,0.9,0.1,1.4,0.3l0,0
				c0.9,0.3,1.1,0.4,1.2,0.6h1c1.5,0,3.1-0.1,4.6-0.3l0,0l0.9-0.3l12.4-0.1v0.3l-12.3,0.1l-0.9,0.3c-1.6,0.2-3.1,0.3-4.7,0.3
				L423.5,475L423.5,475z"/>
			<path class="st65" d="M421,478.6l2.4-0.3h1.2l1.6-1l0.8,0.3c0,0,0.7,0,2.1,0.1l0,0c3.4,0,6.1,0,8.3,0l0,0c6.5,0,8-0.1,8-0.1l0,0
				v0.3c0,0-1.5,0.1-8,0.1l0,0c-2.2,0-4.9,0-8.3,0l0,0c-1.5,0-2.1-0.1-2.2-0.1l0,0l-0.8-0.3l-1.5,1h-1.2l-2.3,0.3L421,478.6
				L421,478.6z"/>
			<path class="st65" d="M438.1,481.6c-1.3-0.8-2.8-1.4-4.3-1.8l0,0c-0.2-0.1-0.3-0.1-0.5-0.1l0,0c-0.3,0-0.3,0.1-0.3,0.2l0,0
				c0,0.3,0.3,0.7,0.3,1.1l0,0c0,0.2-0.1,0.3-0.3,0.3l0,0c-0.2,0-0.4-0.1-0.6-0.2l0,0c-0.3-0.1-0.6-0.2-0.9-0.2l0,0
				c-1,0-1.5,1-1.7,1.1h-7.3v-0.3h6.3l0.8,0.1c0.3-0.7,1-1.1,1.8-1.2l0,0c0.3,0,0.7,0.1,1,0.2l0,0c0.1,0.1,0.3,0.1,0.4,0.1l0,0
				c-0.1-0.3-0.2-0.7-0.3-1.1l0,0c0-0.3,0.3-0.6,0.6-0.5c0,0,0,0,0,0l0,0c0.2,0,0.4,0,0.6,0.1l0,0c1.6,0.4,3,1,4.4,1.8l0,0l4.2,0.7
				l6.1-0.4v0.3l-6.2,0.4L438.1,481.6L438.1,481.6z"/>
			<path class="st65" d="M429.6,486.3h-0.3l0,0c-1.3,0.2-1.6,0.6-2.3,0.6l0,0c-0.9-0.1-1.7-0.4-2.5-0.8l0,0l0.1-0.3
				c0.7,0.4,1.5,0.7,2.3,0.8l0,0c0.5,0,0.9-0.3,2.3-0.6l0,0c0.1,0,0.2,0,0.4,0l0,0c1.5,0,1.8,1.7,2.6,1.6l0,0c0.3,0,0.8-0.2,1.5-1
				l0,0c0.3-0.3,0.7-0.5,1.2-0.4l0,0c1.1,0.1,2.2,0.5,3.1,1.1l0,0c0.4,0.1,0.8,0.1,1.3,0.1l0,0c1,0.1,1.9-0.3,2.4-1.2l0,0
				c0.5-0.9,1.6-1.5,2.7-1.4l0,0c0.4,0,0.7,0,1.1,0.1l0,0c1.4,0.4,2.7,0.9,4,1.5h3v0.3h-3.1c-1.3-0.6-2.6-1.1-4-1.5l0,0
				c-0.3-0.1-0.7-0.1-1-0.1l0,0c-1-0.1-1.9,0.4-2.4,1.2l0,0c-0.6,0.9-1.6,1.5-2.7,1.3l0,0c-0.5,0-0.9-0.1-1.4-0.2l0,0
				c-0.9-0.6-1.9-0.9-3-1.1l0,0c-0.3,0-0.7,0.1-0.9,0.3l0,0c-0.8,0.8-1.3,1-1.8,1.1l0,0C431.1,487.8,430.9,486.2,429.6,486.3
				L429.6,486.3z"/>
		</g>
		<polygon class="st66" points="409.8,492.7 370.5,492.7 371.4,468.5 402,468.5 		"/>
		<g class="st67">
			<polygon class="st12" points="398,475.4 377.3,475.4 377.3,473.9 397.6,473.9 			"/>
			<polygon class="st12" points="399.2,480.3 377.4,480.3 377.4,478.8 398.8,478.8 			"/>
			<polygon class="st12" points="399.9,482.9 377.5,482.9 377.4,481.3 399.5,481.3 			"/>
			<polygon class="st12" points="400.5,485.6 377.5,485.6 377.5,483.9 400.1,483.9 			"/>
		</g>
		<polygon class="st64" points="511.8,486.2 471.8,486.2 453.4,464.2 487.5,462.9 		"/>
		<path class="st12" d="M466.5,469.4c-0.6,0-0.6,0.8-0.5,1.7c1.1,2.1,2.4,4,3.9,5.8c0.4,0.3,0.8-1.9,0.8-1.9L466.5,469.4z"/>
		<path class="st12" d="M512.2,470.3c-0.1,0.3-0.1,0.6,0.2,0.8l7.6,7c0.3,0.1,0.7-0.1,0.8-0.4l22.5-47.1c0.3-0.6,0-1.2-0.5-1.5
			c0,0-0.1,0-0.1-0.1l-10.3-0.1c-0.3,0-0.6,0.2-0.8,0.5L512.2,470.3z"/>
		<path class="st60" d="M511.9,472.5c-0.1,0.3-0.1,0.6,0.1,0.7l7.5,3.5c0.2,0.1,0.5-0.1,0.7-0.4l21.7-45.9c0.2-0.3,0.2-1-0.4-1
			l-8.7-0.1c-0.3,0.1-0.5,0.3-0.7,0.5L511.9,472.5z"/>
		<path class="st68" d="M470.3,474.7c0.3,0.6,0.8,1,1.4,1.1l47.6,1c0.5,0,0.7-0.2,0.4-0.5l-6.8-6.1c-0.3-0.2-0.6-0.3-1-0.3
			l-44.9-0.7c-0.2,0-0.4,0-0.5,0.2L470.3,474.7z"/>
		<polygon class="st69" points="535.7,437 521.3,466.7 517.7,464.3 531.3,436.4 		"/>
		<path class="st12" d="M469.7,476.5c0,0.4,0.4,0.7,0.7,0.7l49.1,1.2c0.4,0,0.7-0.3,0.8-0.7v-0.6c0-0.4-0.3-0.7-0.7-0.7c0,0,0,0,0,0
			l-49.1-1.2c-0.4,0-0.7,0.3-0.8,0.6L469.7,476.5z"/>
		<polygon class="st60" points="508.2,470.7 512.9,475.4 485.6,474.8 482.3,470.3 		"/>
		<rect x="206.4" y="461.8" class="st70" width="61.7" height="7.3"/>
		<rect x="213.1" y="461.8" class="st71" width="1.5" height="7.3"/>
		<rect x="260.6" y="461.8" class="st71" width="1.5" height="7.3"/>
		<rect x="219" y="464.4" class="st71" width="37.2" height="2.1"/>
		<rect x="206.4" y="465.5" class="st72" width="61.7" height="3.6"/>
		<polygon class="st73" points="256.2,444.8 256.2,447.5 200.2,447.5 200.2,459.2 256.2,459.2 256.2,461.9 196.9,461.9 196.9,444.8 
					"/>
		<path class="st12" d="M200.2,459.2H254c0,0-1.2-1.9-1.2-5.9c0-4.6,1.2-5.9,1.2-5.9h-53.7V459.2z"/>
		<rect x="199.3" y="448.7" class="st74" width="55" height="0.6"/>
		<rect x="199.3" y="450.5" class="st74" width="55" height="0.6"/>
		<rect x="199.3" y="452.2" class="st74" width="55" height="0.6"/>
		<rect x="199.3" y="454" class="st74" width="55" height="0.6"/>
		<rect x="199.3" y="455.8" class="st74" width="55" height="0.6"/>
		<rect x="199.3" y="457.6" class="st74" width="55" height="0.6"/>
		<path class="st75" d="M200.2,453.1v6.1l0,0V453.1l52.5,0c0,0.1,0,0.2,0,0.2c0,4,1.2,5.9,1.2,5.9h2.3v2.6h-59.3v-8.7L200.2,453.1z"
			/>
		<polygon class="st76" points="212.8,462.5 215.1,460.9 217.4,462.5 217.4,456.5 217.4,450.5 215.1,450.5 212.8,450.5 212.8,456.5 
					"/>
		<polygon class="st70" points="219.8,475.8 219.8,478.4 262.6,478.4 262.6,490.1 219.8,490.1 219.8,492.8 266,492.8 266,475.8 		
			"/>
		<path class="st12" d="M262.6,490.2h-40.6c0,0,1.2-1.9,1.2-5.9c0-4.6-1.2-5.9-1.2-5.9h40.5L262.6,490.2L262.6,490.2z"/>
		<rect x="221.8" y="479.6" class="st74" width="41.8" height="0.6"/>
		<rect x="221.8" y="481.4" class="st74" width="41.8" height="0.6"/>
		<rect x="221.8" y="483.2" class="st74" width="41.8" height="0.6"/>
		<rect x="221.8" y="485" class="st74" width="41.8" height="0.6"/>
		<rect x="221.8" y="486.7" class="st74" width="41.8" height="0.6"/>
		<rect x="221.8" y="488.5" class="st74" width="41.8" height="0.6"/>
		<path class="st75" d="M223.3,484.3H266v8.5h-46.1v-2.6h2.3C223,488.4,223.4,486.3,223.3,484.3z"/>
		<rect x="252.4" y="481.4" class="st73" width="1.1" height="7.2"/>
		<path class="st73" d="M249.9,488.5c0,1.7,1.4,3.1,3.1,3.1c1.7,0,3.1-1.4,3.1-3.1c0-1.7-1.4-3.1-3.1-3.1c0,0,0,0,0,0
			C251.3,485.4,249.9,486.8,249.9,488.5z"/>
		<path class="st77" d="M250.9,488.5c0,1.2,0.9,2.1,2.1,2.1c1.2,0,2.1-0.9,2.1-2.1c0-1.2-0.9-2.1-2.1-2.1c0,0,0,0,0,0
			C251.8,486.4,250.9,487.3,250.9,488.5z"/>
		<polygon class="st70" points="279.6,457.8 277.7,459.7 319.6,501.6 311.4,509.9 269.4,468 267.6,469.8 311.8,514.1 323.9,502.1 		
			"/>
		<path class="st12" d="M311.3,509.9l-22.5-22.5l-17.8-17.8c0,0,2.2-0.5,5-3.3c3.2-3.2,3.3-5,3.3-5l17.8,17.8l22.5,22.5l-4.1,4.2
			L311.3,509.9z"/>
		
			<rect x="298.3" y="453.6" transform="matrix(0.7071 -0.7071 0.7071 0.7071 -253.8986 352.5478)" class="st74" width="0.6" height="58.3"/>
		
			<rect x="297.1" y="454.9" transform="matrix(0.7071 -0.7071 0.7071 0.7071 -255.148 352.0316)" class="st74" width="0.6" height="58.3"/>
		
			<rect x="295.8" y="456.1" transform="matrix(0.7071 -0.7071 0.7071 0.7071 -256.4032 351.5154)" class="st74" width="0.6" height="58.3"/>
		
			<rect x="294.6" y="457.4" transform="matrix(0.7071 -0.7071 0.7071 0.7071 -257.6525 350.9992)" class="st74" width="0.6" height="58.3"/>
		
			<rect x="293.3" y="458.6" transform="matrix(0.7071 -0.7071 0.7071 0.7071 -258.8948 350.4859)" class="st74" width="0.6" height="58.3"/>
		
			<rect x="292.1" y="459.9" transform="matrix(0.7071 -0.7071 0.7071 0.7071 -260.1441 349.9698)" class="st74" width="0.6" height="58.3"/>
		<path class="st75" d="M276.1,466.3l41.7,41.8l-6,6l-44.3-44.3l1.9-1.9l1.6,1.6C271,469.6,273.2,469.1,276.1,466.3z"/>
		
			<rect x="304.6" y="498.9" transform="matrix(0.7071 -0.7071 0.7071 0.7071 -262.8845 364.1925)" class="st78" width="7.2" height="1.1"/>
		<path class="st78" d="M303.5,499.7c-1.2,1.2-1.2,3.1,0,4.3c1.2,1.2,3.1,1.2,4.3,0c1.2-1.2,1.2-3.1,0-4.3
			C306.7,498.5,304.8,498.5,303.5,499.7C303.6,499.7,303.5,499.7,303.5,499.7z"/>
		<path class="st71" d="M304.2,500.4c-0.8,0.8-0.8,2.2,0,3s2.2,0.8,3,0c0.8-0.8,0.8-2.2,0-3C306.4,499.6,305,499.6,304.2,500.4
			C304.2,500.4,304.2,500.4,304.2,500.4z"/>
		<rect x="190.2" y="492.9" class="st22" width="84" height="22.2"/>
		<rect x="195.9" y="492.9" class="st79" width="1" height="22.2"/>
		<rect x="198" y="492.9" class="st79" width="1" height="22.2"/>
		<rect x="230.5" y="492.9" class="st79" width="1" height="22.2"/>
		<rect x="232.6" y="492.9" class="st79" width="1" height="22.2"/>
		<rect x="265.1" y="492.9" class="st79" width="1" height="22.2"/>
		<rect x="267.2" y="492.9" class="st79" width="1" height="22.2"/>
		<rect x="190.2" y="503.5" class="st80" width="84" height="11.6"/>
		
			<rect x="299.9" y="453.6" transform="matrix(0.7071 -0.7071 0.7071 0.7071 -255.6015 357.6596)" class="st73" width="8.1" height="67.6"/>
		
			<rect x="283.1" y="470.1" transform="matrix(0.7071 -0.7071 0.7071 0.7071 -248.6022 340.8067)" class="st79" width="8.1" height="0.8"/>
		
			<rect x="284.2" y="471.3" transform="matrix(0.7071 -0.7071 0.7071 0.7071 -249.0993 341.9298)" class="st79" width="8.1" height="0.8"/>
		
			<rect x="299.2" y="486.3" transform="matrix(0.7071 -0.7071 0.7071 0.7071 -255.3031 356.959)" class="st79" width="8.1" height="0.8"/>
		
			<rect x="300.4" y="487.5" transform="matrix(0.7071 -0.7071 0.7071 0.7071 -255.7981 358.1274)" class="st79" width="8.1" height="0.8"/>
		
			<rect x="315.4" y="502.5" transform="matrix(0.7071 -0.7071 0.7071 0.7071 -262.0065 373.1396)" class="st79" width="8.1" height="0.8"/>
		
			<rect x="316.6" y="503.6" transform="matrix(0.7071 -0.7071 0.7071 0.7071 -262.4944 374.311)" class="st79" width="8.1" height="0.8"/>
		
			<rect x="300.5" y="455" transform="matrix(0.7071 -0.7071 0.7071 0.7071 -256.9708 357.0939)" class="st80" width="4.2" height="67.6"/>
		<rect x="203.6" y="469.2" class="st78" width="68.6" height="6.5"/>
		<rect x="210.7" y="469.2" class="st79" width="20" height="6.5"/>
		<rect x="234.1" y="469.2" class="st79" width="3.3" height="6.5"/>
		<rect x="263.8" y="469.2" class="st79" width="1.2" height="6.5"/>
		<rect x="203.6" y="472.7" class="st78" width="68.6" height="3.1"/>
		<rect x="200.9" y="434.6" class="st76" width="74.6" height="10.1"/>
		<path class="st78" d="M245.8,442.5h-34.9c-1.6,0-2.9-1.3-2.9-2.9l0,0c0-1.6,1.3-2.9,2.9-2.9h34.9c1.6,0,2.9,1.3,2.9,2.9l0,0
			C248.6,441.2,247.4,442.5,245.8,442.5z"/>
		<path class="st78" d="M252.3,442.6L252.3,442.6c-0.6,0-1-0.4-1-1v-3.8c0-0.6,0.4-1,1-1l0,0c0.6,0,1,0.4,1,1v3.8
			C253.3,442.1,252.8,442.6,252.3,442.6z"/>
		<rect x="200.9" y="439.3" class="st80" width="74.6" height="5.4"/>
		
			<rect x="310.2" y="449.5" transform="matrix(0.7071 -0.7071 0.7071 0.7071 -249.5022 366.3328)" class="st78" width="14.4" height="69.8"/>
		<path class="st71" d="M317.6,478.3l6.6,6.6c1.3,1.3,1.3,3.3,0,4.6l-1.7,1.7c-1.3,1.3-3.3,1.3-4.6,0l-6.6-6.6
			c-1.3-1.3-1.3-3.3,0-4.6l1.7-1.7C314.3,477,316.3,477,317.6,478.3z"/>
		
			<rect x="294.2" y="464.3" transform="matrix(0.7071 -0.7071 0.7071 0.7071 -242.8766 350.3336)" class="st76" width="14.4" height="8.2"/>
		
			<rect x="300" y="472.3" transform="matrix(0.7071 -0.7071 0.7071 0.7071 -245.2354 356.0492)" class="st76" width="14.3" height="3.6"/>
		
			<rect x="322.3" y="495" transform="matrix(0.7071 -0.7071 0.7071 0.7071 -254.5056 378.4292)" class="st76" width="14.4" height="2.9"/>
		
			<rect x="325.7" y="498.7" transform="matrix(0.7071 -0.7071 0.7071 0.7071 -255.8759 381.7502)" class="st76" width="14.4" height="2"/>
		<path class="st12" d="M357.3,510.8l-17.7-17.6L327,480.6c2-1,3.8-2.3,5.4-4c3.6-3.6,4-5.3,4-5.3l12.6,12.6l17.7,17.7l-4.7,4.7
			L357.3,510.8z"/>
		
			<rect x="347.7" y="468.3" transform="matrix(0.7071 -0.7071 0.7071 0.7071 -244.6993 389.5993)" class="st74" width="0.5" height="43.8"/>
		
			<rect x="346.7" y="469.2" transform="matrix(0.7071 -0.7071 0.7071 0.7071 -245.681 389.1892)" class="st74" width="0.5" height="43.8"/>
		
			<rect x="345.7" y="470.2" transform="matrix(0.7071 -0.7071 0.7071 0.7071 -246.6569 388.7791)" class="st74" width="0.5" height="43.8"/>
		
			<rect x="344.7" y="471.2" transform="matrix(0.7071 -0.7071 0.7071 0.7071 -247.6428 388.3789)" class="st74" width="0.5" height="43.8"/>
		
			<rect x="343.8" y="472.2" transform="matrix(0.7071 -0.7071 0.7071 0.7071 -248.6245 387.9688)" class="st74" width="0.5" height="43.8"/>
		
			<rect x="342.8" y="473.2" transform="matrix(0.7071 -0.7071 0.7071 0.7071 -249.6104 387.5628)" class="st74" width="0.5" height="43.8"/>
		
			<rect x="350.7" y="465.3" transform="matrix(0.7071 -0.7071 0.7071 0.7071 -241.7015 390.8368)" class="st74" width="0.5" height="43.8"/>
		
			<rect x="349.7" y="466.2" transform="matrix(0.7071 -0.7071 0.7071 0.7071 -242.6803 390.4337)" class="st74" width="0.5" height="43.8"/>
		
			<rect x="348.7" y="467.2" transform="matrix(0.7071 -0.7071 0.7071 0.7071 -243.6591 390.0307)" class="st74" width="0.5" height="43.8"/>
		<polygon class="st76" points="336.4,468.5 335,470 366.5,501.5 357.3,510.8 325.7,479.3 324.2,480.7 357.6,514.1 369.8,501.9 		
			"/>
		<path class="st75" d="M357.3,510.8l-17.7-17.6L327,480.6c1.9-0.9,3.7-2.2,5.1-3.8l29.6,29.6L357.3,510.8z"/>
		<polygon class="st75" points="361.7,506.3 363.5,508.2 357.6,514.1 324.2,480.7 325.7,479.3 357.3,510.8 		"/>
		<polygon class="st73" points="355.7,505.2 355.1,502.7 352.5,502 355.9,498.7 357.4,497.2 359,498.8 360.6,500.4 359.1,501.9 		
			"/>
		<path class="st66" d="M518.6,401.4c-9.5,4-51.2,26.5-54,36.7s3.3,15.3,3.3,15.3l17.8,2.8L518.6,401.4z"/>
		<path class="st81" d="M528.7,454.1c10.3-2.3,39-11.7,42.7-10.4c1.9,0.6,2.3,3.5,2.1,7.6c-0.2,3.5-2.5,8.3,1.8,7.8
			s9.6-6.8,9.7-11.7c0.1-5.8-1.7-7.6-1.3-11.5s0.2-8.6-2.5-9.2c-1.9-0.4-4.7,1.3-7.2,3.2c-4.2,3.1-42.7,9.4-42.7,9.4
			S522.8,455.4,528.7,454.1z"/>
		<path class="st59" d="M575.1,428.5c1.6,0.3,3.3-0.1,4,5.3s2.6,13.6,0.7,16.5s-6.6,4.2-6.7,2.8s-2,5.1-1,7.8s13.4-3,14.6-9.1
			s-1.7-9.1-1.6-14.2s-0.4-10.9-4.9-11.3C578.2,426,576.3,426.9,575.1,428.5z"/>
		<path class="st63" d="M529.5,457.4c11.4-2.6,43.2-12.9,47.4-11.6c2.1,0.7,2.5,3.9,2.3,8.5c-0.2,3.8-2.8,9.3,2,8.6
			s10.7-7.5,10.8-13c0.1-6.4-1.9-8.5-1.4-12.8s0.2-9.6-2.8-10.3c-2.1-0.5-5.2,1.5-8,3.5c-4.7,3.5-47.3,10.4-47.3,10.4
			S523,458.8,529.5,457.4z"/>
		<path class="st60" d="M581,429c1.8,0.4,3.7-0.1,4.5,5.8s2.9,15,0.8,18.4s-7.3,4.7-7.4,3.1s-2.2,5.7-1.2,8.6s14.9-3.3,16.2-10.1
			s-1.8-10.1-1.7-15.8s-0.4-12.1-5.4-12.6C584.5,426.2,582.3,427.2,581,429z"/>
		<path class="st66" d="M535,397.5c-8.7,4.5-60.5,33-63.1,40.2c-1.4,3.8-7.2,14.2-1.8,16.6c7.5,3.4,9.3,4.9,12.1,4.9
			c6.1,0,78.7,4.5,78.7,4.5s8.7-19.6,6.1-31.3C563.4,416.3,535,397.5,535,397.5z"/>
		<path class="st66" d="M570.9,412.3c0,8,4,17.2-4.8,23.9s-13.3,3.8-19.6,3.8s-3.8-28.8-3.8-28.8L570.9,412.3z"/>
		<path class="st57" d="M542,339.3c-1.7-8.8-18.2-7.6-18.2-7.6s-18.7,38.4-21.9,39.4c-3,1-22.5,11.4-27.6,14.1
			c-1.4,0.1-2.7,0.1-4.1-0.2c-1.9-0.4-3.7-1-5.5-1.6c-1.3-0.6-3.7,0.2-6-0.5c-0.9-0.3-2,0.2-1.3,1s2.4,0.9,3.6,1.7
			c1.5,1-3.4,2.2-4.7,2.5c-1.1,0.2-7.5,2.5-7.2,3.3c0.5,1.4,7.5-1.8,7.6-1.2s-8,2.6-7.5,3.4c1.1,1.7,7-1.3,8-0.6l-3.3,1.1
			c-1.5,0.5-3.2,0.7-3.3,1.1c-1.1,2.8,8.4-1.9,8.4-0.5c0,1.1-5.5,2.1-4.8,3.2c0.4,0.5,6.7-1.7,6.7-1.7s9.2-1.4,12.3-2.6
			c1.1-0.5,4.1-1.4,6.3-2.1c7.7-1.7,23.8-5.4,30-8.8C513.1,380.6,543.7,348,542,339.3z"/>
		<path class="st63" d="M495.9,311c7.8,1.5,15.4,4.2,20,13.4c2,4.1,0.4,15.3,1.1,20.9c0.7,5.5,12.1-6.6,17.6-13.8
			c4.9-6.3,1.5-9.7,5.2-12.8c-4.4-1.9-25.1-21.8-27.6-33.1S495.9,311,495.9,311z"/>
		<path class="st12" d="M527.9,318.9c-1.7,3-12.3,15.7-12.3,15.7c0.3,6.8-1.5,15.6-1.1,25.8c0.2,4.7,5.6,10.4,9.3,11.7
			c8.1,2.8,9.7,12.1,4.7,17.8c-7,8-20.6,15.3-20.6,15.3s15.4,3.2,39.6,15.4c12.3,6.2,22.6,2.7,22.5-0.6c-1-84.1-32.2-102-36-107
			C534.2,314.4,532.4,310.9,527.9,318.9z"/>
		<path class="st12" d="M533.1,311.2c4.4,3,9.5,7.9,13.9,11.1c6.9,6.3,9,9.4,12,17.6c10,26.4,19.5,58.9,12.5,84.2
			c-0.4,1.5-10.8,2-23.9-3.5c10.8-20.5,9.5-34.8,3.2-57.2c-5.2-18.5-9-29-12.2-34.5c-2.5-4.5-6.2-8.3-10.8-10.7
			C527.9,317.9,533.2,312.7,533.1,311.2z"/>
		<path class="st57" d="M547.1,342.9c-4.4-8.1-15.7-1.5-15.7-1.5s-2.2,41.7-5.1,43.7c-1.9,1.3-10,8.6-15.9,13.1l-8.5,5.9
			c-4-0.9-12.6-2.2-14-1.4c-2.1,1.5-4.2,3.2-6.1,5c-1,1.1-1.8,2.3-2.3,3.7c-0.2,0.9,0.8,2.2,1.5,1.2c1.2-1.3,2.5-2.5,3.8-3.6
			c0,0-1.5,3.1-1.2,3.7s0.9,0.6,0.9,0.6l1.4-0.9c0,0-1,1.3-0.4,2.1c0.3,0.4,1.2,0,1.8-0.4c-0.5,0.7-1.2,1.2-0.1,1.8
			c0.8,0.4,2.2-0.6,2.2-0.6s-0.8,1-0.4,1.6s2.4,0.4,3.3,0.1s10.1-3,12.8-3.9c0.3-0.1,0.5-0.2,0.9-0.3c4.9-2,32-15.2,35.1-18
			C544.6,391.7,551.5,351.1,547.1,342.9z"/>
		<path class="st56" d="M537.1,326.3c5.8-0.8,11.4,2.6,13.1,10.2s-2.3,35.2-2.3,35.2c-5.1,0.3-10.3,0.1-15.4-0.5
			c-2.5-0.4-3.3-35.1-2-38.1S537.1,326.3,537.1,326.3z"/>
		<path class="st56" d="M529.6,339c0.7,9.5-1.5,21.3-1.3,31.1c1.5,1.6,13.1,2.6,14.7,1.8c0,0,10.3-37.3-2.6-43.7
			C537.9,326.9,529.1,330.8,529.6,339z"/>
		<path class="st82" d="M531.8,273.7c19.8-2.9,18.4-22.2,11.9-26.6s-24.9-4.7-24.5,13.3S531.8,273.7,531.8,273.7z"/>
		<path class="st83" d="M532,262.4c8.6-1.3,13.2-5.6,15.1-10.5c2.7,7.4,0.1,19.5-15.3,21.8c0,0-12.3,4.7-12.6-13.3
			c-0.1-2,0.2-4,0.7-6C522.3,266.1,532,262.4,532,262.4z"/>
		<path class="st84" d="M526.5,274.4c15.3-0.9,13.4-12.3,8.2-15.1s-19.6-3.7-18.6,6.8S526.5,274.4,526.5,274.4z"/>
		<path class="st82" d="M487.9,273L487.9,273c0,0,12-15.8,25-19.2c10.3-2.7,17.8,8.4,17.8,8.4c13.7,28.1-8.6,38.1-8.6,38.1l0,0
			l-27.5,5.4l-3.3-5.3C480.1,284.9,484.5,277,487.9,273z"/>
		<path class="st63" d="M502.5,267c12.9-1.6,22.3-0.6,24.4,15.8s-12,34-24.7,36.8c-6,1.3-8.8-1.1-12-10c-1.9-0.1-3.7-0.5-3.8-1.8
			c0.7-2.2,1.1-4.5,1.3-6.9c-0.4-2-2.8-7.4-3.1-9.6C482.6,274.9,489.6,268.7,502.5,267z"/>
		<path class="st82" d="M484.4,279.9c0,0,15,15.7,25.9,14.1s13.8-6.2,13.8-6.2c-5.3-4.9-10.9-9.5-16.7-13.8
			C502.4,270.4,484,269.7,484.4,279.9z"/>
		<path class="st82" d="M486.5,275c0,0,12,16.1,24.2,15.6s16.4-4.8,16.4-4.8c-4.7-5.1-9.7-10-15-14.5
			C507.6,267.3,490,264.7,486.5,275z"/>
		<path class="st82" d="M496.7,266.2c0,0,7.8,17.1,19.8,19.2s17.1-0.9,17.1-0.9c-3.4-5.7-7.1-11.1-11.1-16.3
			C518.9,263.7,502.5,257.6,496.7,266.2z"/>
		<path class="st82" d="M527.2,261.8c0,0-13.6,13-11.6,25s6.5,15.9,6.5,15.9c4.2-5,8.2-10.3,11.8-15.8
			C536.9,282,537.2,264.5,527.2,261.8z"/>
		<path class="st85" d="M790.3,463.8c-5,0-9.8,0.2-14.5,0.7c-24.3-19-172.5-33.7-351.7-33.7c-196.2,0-355.2,17.5-355.2,39.2
			c0,1.8,1.1,3.5,3.2,5.3c-43.8,7.2-72,18.4-72,31c0,21.6,82.9,39.2,185.1,39.2c98.3,0,178.7-16.2,184.7-36.7
			c17.7,0.3,35.7,0.4,54.2,0.5c128.5,0,241-7.5,303.4-18.8c3,12.4,30,22,62.9,22c34.9,0,63.1-10.9,63.1-24.3
			S825.1,463.8,790.3,463.8z"/>
	</g>
</g>
</svg>
